<?xml version="1.0" encoding="UTF-8" standalone="no"?>
<svg
   xmlns:dc="http://purl.org/dc/elements/1.1/"
   xmlns:cc="http://creativecommons.org/ns#"
   xmlns:rdf="http://www.w3.org/1999/02/22-rdf-syntax-ns#"
   xmlns:svg="http://www.w3.org/2000/svg"
   xmlns="http://www.w3.org/2000/svg"
   xmlns:sodipodi="http://sodipodi.sourceforge.net/DTD/sodipodi-0.dtd"
   xmlns:inkscape="http://www.inkscape.org/namespaces/inkscape"
   sodipodi:docname="logo.svg"
   inkscape:version="1.0 (4035a4f, 2020-05-01)"
   width="512.0px"
   height="512.0px"
   viewBox="0 0 512.0 512.0"
   version="1.1"
   id="SVGRoot">
  <defs
     id="defs860" />
  <sodipodi:namedview
     inkscape:window-maximized="0"
     inkscape:window-y="25"
     inkscape:window-x="0"
     inkscape:window-height="1027"
     inkscape:window-width="1252"
     showgrid="true"
     inkscape:document-rotation="0"
     inkscape:current-layer="layer1"
     inkscape:document-units="px"
     inkscape:cy="560"
     inkscape:cx="400"
     inkscape:zoom="0.35"
     inkscape:pageshadow="2"
     inkscape:pageopacity="0.0"
     borderopacity="1.0"
     bordercolor="#666666"
     pagecolor="#ffffff"
     id="base">
    <inkscape:grid
       type="xygrid"
       id="grid1430" />
  </sodipodi:namedview>
  <metadata
     id="metadata863">
    <rdf:RDF>
      <cc:Work
         rdf:about="">
        <dc:format>image/svg+xml</dc:format>
        <dc:type
           rdf:resource="http://purl.org/dc/dcmitype/StillImage" />
        <dc:title></dc:title>
      </cc:Work>
    </rdf:RDF>
  </metadata>
  <g
     id="layer1"
     inkscape:groupmode="layer"
     inkscape:label="Layer 1">
    <circle
       r="237.42073"
       inkscape:label="path113"
       cy="255.99986"
       cx="255.99986"
       id="path113"
       style="fill:#949ef7;fill-opacity:1;stroke:#464b75;stroke-width:37.1582;stroke-dasharray:none;stroke-opacity:1;paint-order:normal" />
    <circle
       r="237.42073"
       inkscape:label="path113"
       cy="256.00015"
       cx="256.00015"
       id="path113-5"
       style="fill:#949ef7;fill-opacity:1;stroke:#464b75;stroke-width:37.1582;stroke-dasharray:none;stroke-opacity:1;paint-order:normal" />
    <path
       inkscape:transform-center-x="-2.335035e-06"
       d="M 256.23408,107.34731 107.2796,365.34019 79.09333,414.15951 a 237.42073,237.42073 0 0 0 176.9067,79.26083 237.42073,237.42073 0 0 0 177.18451,-79.58561 l -27.99757,-48.49454 z"
       inkscape:transform-center-y="-22.753617"
       style="fill:#464b75;fill-opacity:1;stroke:#464b75;stroke-width:0.928957;stroke-opacity:1"
       id="path383" />
    <path
       inkscape:transform-center-x="2.5640025e-06"
       sodipodi:nodetypes="ccssssssssssscc"
       d="m 256.50937,192.05297 -31.12793,53.91514 c 0,0 -16.20439,28.3742 -31.12792,53.91515 -2.83142,4.84584 10.99043,2.76006 16.6027,2.80055 6.57493,0.0475 12.92085,-2.96242 19.49585,-2.99999 5.53664,-0.0316 10.91198,2.5475 16.44476,2.33849 3.31273,-0.12514 6.39756,-2.16703 9.71254,-2.13905 3.8011,0.0319 7.29372,2.54844 11.09389,2.64038 5.15586,0.12475 10.05082,-2.94469 15.20732,-2.85027 3.59909,0.0659 6.93575,2.28644 10.53427,2.37665 3.08356,0.0773 6.03366,-1.51169 9.11735,-1.58166 2.70928,-0.0615 5.3566,1.11505 8.06504,1.02483 2.79646,-0.0932 9.72645,0.75946 8.23819,-1.60993 -20.77809,-33.07985 -31.12796,-53.91515 -31.12796,-53.91515 z"
       inkscape:transform-center-y="-4.7550166"
       style="fill:#ffffff;stroke:#464b75;stroke-width:0.194132"
       id="path383-7" />
    <path
       sodipodi:nodetypes="cccccc"
       d="m 329.72183,339.59059 -153.1931,1.57069 -65.67132,125.20465 c 40.54467,33.14186 95.01113,45.66058 145.18435,45.7247 46.75051,-0.0351 96.65199,-9.94572 135.57247,-38.98876 z"
       style="fill:#949ef7;stroke-width:3.14441"
       id="rect16079" />
  </g>
</svg>
