<?xml version="1.0" encoding="UTF-8" standalone="no"?>
<svg
   xmlns:dc="http://purl.org/dc/elements/1.1/"
   xmlns:cc="http://creativecommons.org/ns#"
   xmlns:rdf="http://www.w3.org/1999/02/22-rdf-syntax-ns#"
   xmlns:svg="http://www.w3.org/2000/svg"
   xmlns="http://www.w3.org/2000/svg"
   xmlns:sodipodi="http://sodipodi.sourceforge.net/DTD/sodipodi-0.dtd"
   xmlns:inkscape="http://www.inkscape.org/namespaces/inkscape"
   sodipodi:docname="logo.svg"
   inkscape:version="1.0 (4035a4f, 2020-05-01)"
   inkscape:export-ydpi="96"
   inkscape:export-xdpi="96"
   inkscape:export-filename="apex-full.png"
   id="svg5"
   version="1.1"
   viewBox="0 0 529.16667 158.74986"
   height="600"
   width="2000">
  <metadata
     id="metadata893">
    <rdf:RDF>
      <cc:Work
         rdf:about="">
        <dc:format>image/svg+xml</dc:format>
        <dc:type
           rdf:resource="http://purl.org/dc/dcmitype/StillImage" />
      </cc:Work>
    </rdf:RDF>
  </metadata>
  <sodipodi:namedview
     inkscape:document-rotation="0"
     inkscape:current-layer="text18319"
     inkscape:window-maximized="1"
     inkscape:window-y="38"
     inkscape:window-x="0"
     inkscape:window-height="916"
     inkscape:window-width="1512"
     inkscape:cy="428.47757"
     inkscape:cx="239.46424"
     inkscape:zoom="0.70365411"
     showgrid="false"
     inkscape:document-units="mm"
     inkscape:deskcolor="#d1d1d1"
     inkscape:pagecheckerboard="0"
     inkscape:pageopacity="0.0"
     inkscape:showpageshadow="2"
     borderopacity="0.25"
     bordercolor="#000000"
     pagecolor="#ffffff"
     id="namedview7" />
  <defs
     id="defs2" />
  <g
     id="layer1"
     inkscape:groupmode="layer"
     inkscape:label="Layer 1">
    <circle
       inkscape:label="path113"
       r="67.621513"
       cy="78.734001"
       cx="99.827972"
       id="path113"
       style="fill:#949ef7;fill-opacity:1;stroke:#464b75;stroke-width:10.5833;stroke-dasharray:none;stroke-opacity:1;paint-order:normal" />
    <circle
       inkscape:label="path113"
       r="67.621513"
       cy="78.734077"
       cx="99.828049"
       id="path113-5"
       style="fill:#949ef7;fill-opacity:1;stroke:#464b75;stroke-width:10.5833;stroke-dasharray:none;stroke-opacity:1;paint-order:normal" />
    <path
       d="m 99.894685,36.395196 -42.424801,73.480814 -8.027933,13.90458 a 67.621513,67.621513 0 0 0 50.386071,22.57485 67.621513,67.621513 0 0 0 50.465198,-22.66735 l -7.97419,-13.81208 z"
       inkscape:transform-center-y="-24.493686"
       style="fill:#464b75;fill-opacity:1;stroke:#464b75;stroke-width:0.264583;stroke-opacity:1"
       id="path383" />
    <path
       sodipodi:nodetypes="ccssssssssssscc"
       d="m 99.973091,60.520825 -8.865769,15.355962 c 0,0 -4.615289,8.08146 -8.865768,15.35596 -0.806437,1.380181 3.130264,0.786115 4.728735,0.797645 1.872654,0.01351 3.680081,-0.843749 5.552753,-0.854447 1.576931,-0.009 3.107918,0.725571 4.68375,0.66604 0.943524,-0.03564 1.822135,-0.617207 2.766299,-0.609237 1.082619,0.0091 2.077379,0.72584 3.159729,0.752026 1.46848,0.03553 2.86265,-0.838698 4.33131,-0.811806 1.02508,0.01877 1.97542,0.651216 3.00034,0.67691 0.87825,0.02202 1.71849,-0.430553 2.59678,-0.450483 0.77165,-0.01751 1.52565,0.317585 2.29706,0.291889 0.79648,-0.02653 2.77026,0.216306 2.34638,-0.458536 -5.91796,-9.42171 -8.86578,-15.355961 -8.86578,-15.355961 z"
       inkscape:transform-center-y="-5.1186534"
       style="fill:#ffffff;stroke:#464b75;stroke-width:0.0552922"
       id="path383-7" />
    <path
       sodipodi:nodetypes="cccccc"
       d="m 120.82526,102.54208 -43.632032,0.44736 -18.704323,35.66044 c 11.54782,9.43937 27.060805,13.00492 41.351003,13.02318 13.315352,-0.01 27.528152,-2.83271 38.613372,-11.10467 z"
       style="fill:#949ef7;stroke-width:0.895584"
       id="rect16079" />
    <g
       style="font-size:172.201px;fill:#000000;fill-opacity:1;stroke:#ffffff;stroke-width:1;stroke-dasharray:none;stroke-opacity:1;paint-order:normal"
       id="text18319"
       transform="scale(0.92359804,1.0827221)"
       aria-label="PEX">
      <path
         id="path895"
         style="font-style:normal;font-variant:normal;font-weight:normal;font-stretch:normal;font-family:'Liberation Sans';-inkscape-font-specification:'Liberation Sans';fill:#000000;fill-opacity:1;stroke:#ffffff;stroke-width:1;stroke-dasharray:none;stroke-opacity:1"
         d="M 208.03113,133.23349 V 9.9685135 h 46.49764 q 12.27604,0 18.7504,1.1771555 9.08091,1.513485 15.21894,5.801694 6.13802,4.204126 9.83765,11.855635 3.78371,7.65151 3.78371,16.816505 0,15.723431 -10.00582,26.654159 -10.00582,10.846645 -36.15548,10.846645 h -31.61503 v 50.113183 z m 16.31201,-64.659459 h 31.86728 q 15.80751,0 22.45003,-5.885777 6.64252,-5.885776 6.64252,-16.564256 0,-7.735592 -3.95188,-13.200956 -3.8678,-5.549447 -10.25807,-7.31518 -4.12004,-1.093072 -15.21893,-1.093072 h -31.53095 z" />
      <path
         id="path897"
         style="font-style:normal;font-variant:normal;font-weight:normal;font-stretch:normal;font-family:'Liberation Sans';-inkscape-font-specification:'Liberation Sans';fill:#000000;fill-opacity:1;stroke:#ffffff;stroke-width:1;stroke-dasharray:none;stroke-opacity:1"
         d="M 323.39235,133.23349 V 9.9685135 h 89.12747 V 24.51479 h -72.81546 v 37.753052 h 68.19092 v 14.462194 h -68.19092 v 41.957174 h 75.67427 v 14.54628 z" />
      <path
         id="path899"
         style="font-style:normal;font-variant:normal;font-weight:normal;font-stretch:normal;font-family:'Liberation Sans';-inkscape-font-specification:'Liberation Sans';fill:#000000;fill-opacity:1;stroke:#ffffff;stroke-width:1;stroke-dasharray:none;stroke-opacity:1"
         d="M 425.55261,133.23349 473.2274,68.994444 431.18614,9.9685135 h 19.42306 l 22.36595,31.6150285 q 6.97885,9.837655 9.92174,15.134853 4.12004,-6.726601 9.75357,-14.041781 L 517.45481,9.9685135 h 17.74141 l -43.3025,58.1010225 46.6658,65.163954 H 518.37971 L 487.35326,89.258331 q -2.60655,-3.783713 -5.38128,-8.240087 -4.12004,6.726602 -5.88577,9.249078 l -30.94237,42.966168 z" />
    </g>
  </g>
</svg>
