<?xml version="1.0" encoding="UTF-8"?>
<!DOCTYPE svg PUBLIC "-//W3C//DTD SVG 1.1//EN" "http://www.w3.org/Graphics/SVG/1.1/DTD/svg11.dtd">
<!-- Creator: CorelDRAW 2021 (64-Bit Not for commercial use) -->
<svg xmlns="http://www.w3.org/2000/svg" xml:space="preserve" width="8.50809in" height="12.2372in" version="1.1" style="shape-rendering:geometricPrecision; text-rendering:geometricPrecision; image-rendering:optimizeQuality; fill-rule:evenodd; clip-rule:evenodd"
viewBox="0 0 6126.57 8811.85"
 xmlns:xlink="http://www.w3.org/1999/xlink"
 xmlns:xodm="http://www.corel.com/coreldraw/odm/2003">
 <defs>
  <style type="text/css">
   <![CDATA[
    .str0 {stroke:#373435;stroke-width:5;stroke-miterlimit:2.61313}
    .fil1 {fill:#FEFEFE}
    .fil0 {fill:#373435}
    .fil85 {fill:#282829}
    .fil7 {fill:#1DA6D5}
    .fil5 {fill:#21A6D5}
    .fil10 {fill:#22A5D2}
    .fil16 {fill:#23A9D5}
    .fil47 {fill:#26A8D7}
    .fil14 {fill:#2AA5D3}
    .fil23 {fill:#2DB7DA}
    .fil34 {fill:#2E95B0}
    .fil66 {fill:#32A8D2}
    .fil31 {fill:#3A353B}
    .fil3 {fill:#3C363B}
    .fil60 {fill:#3C383C}
    .fil25 {fill:#3C393E}
    .fil27 {fill:#3D373D}
    .fil18 {fill:#3D3A40}
    .fil21 {fill:#3E3A3E}
    .fil17 {fill:#3E3B42}
    .fil62 {fill:#413A3D}
    .fil8 {fill:#413E42}
    .fil38 {fill:#413E45}
    .fil42 {fill:#423C42}
    .fil44 {fill:#434145}
    .fil46 {fill:#43A6D0}
    .fil32 {fill:#44434B}
    .fil64 {fill:#46A7CB}
    .fil33 {fill:#484447}
    .fil37 {fill:#49464A}
    .fil67 {fill:#4C494D}
    .fil58 {fill:#4D4C53}
    .fil45 {fill:#514D52}
    .fil53 {fill:#53A9D6}
    .fil69 {fill:#555763}
    .fil75 {fill:#5C5A5D}
    .fil81 {fill:#615E63}
    .fil83 {fill:#666469}
    .fil13 {fill:#669EB4}
    .fil78 {fill:#68B7D5}
    .fil59 {fill:#6C6A6D}
    .fil76 {fill:#71B7CF}
    .fil80 {fill:#955F5C}
    .fil28 {fill:#9BE2EF}
    .fil84 {fill:#9C9CA2}
    .fil82 {fill:#A3A2A5}
    .fil63 {fill:#AFAEB2}
    .fil79 {fill:#B5B3B6}
    .fil72 {fill:#BCBBBD}
    .fil48 {fill:#C1BFC1}
    .fil51 {fill:#C4C4C5}
    .fil68 {fill:#C6C6C9}
    .fil55 {fill:#C8C6C9}
    .fil35 {fill:#CCD4D8}
    .fil49 {fill:#CECED1}
    .fil52 {fill:#D3D3D4}
    .fil22 {fill:#D3D5DB}
    .fil19 {fill:#D6D6D9}
    .fil26 {fill:#D6DADC}
    .fil41 {fill:#D76257}
    .fil11 {fill:#D8D8DA}
    .fil2 {fill:gainsboro}
    .fil50 {fill:#DF5036}
    .fil77 {fill:#E19B63}
    .fil40 {fill:#E8473B}
    .fil74 {fill:#EA776C}
    .fil65 {fill:#EB5646}
    .fil73 {fill:#EC5339}
    .fil54 {fill:#ECB76C}
    .fil57 {fill:#ED9D25}
    .fil43 {fill:#EE5344}
    .fil15 {fill:#EE847A}
    .fil71 {fill:#EEB6B0}
    .fil30 {fill:#EF3D32}
    .fil61 {fill:#EF6452}
    .fil70 {fill:#F0B54E}
    .fil36 {fill:#F4B42E}
    .fil20 {fill:#F64936}
    .fil9 {fill:#F9553B}
    .fil39 {fill:#F9AC0E}
    .fil24 {fill:#FAC232}
    .fil56 {fill:#FBB515}
    .fil6 {fill:#FD4331}
    .fil29 {fill:#FDB50A}
    .fil12 {fill:#FDC013}
    .fil4 {fill:#FFB905}
    .fil86 {fill:#FEFEFE;fill-rule:nonzero}
    .fil87 {fill:#373435;fill-rule:nonzero}
   ]]>
  </style>
 </defs>
 <g id="Layer_x0020_1">
  <metadata id="CorelCorpID_0Corel-Layer"/>
  <polygon class="fil0" points="3.99,4395.57 6126.57,4395.57 6126.57,8811.85 3.99,8811.85 "/>
  <polygon class="fil1" points="-0,0 6122.58,0 6122.58,4416.29 -0,4416.29 "/>
  <g id="_2246447725408">
   <polygon class="fil0 str0" points="3069.53,2012.15 3583.46,2299.23 4097.39,2586.32 4105.73,3174.93 4114.08,3763.55 3608.49,4065.09 3102.9,4366.62 2588.97,4079.54 2075.04,3792.46 2066.7,3203.84 2058.36,2615.22 2563.94,2313.69 "/>
   <polygon class="fil2 str0" points="3070.31,2067.28 3560.17,2340.92 4050.04,2614.56 4057.99,3175.61 4065.94,3736.67 3584.03,4024.08 3102.12,4311.49 2612.26,4037.85 2122.4,3764.22 2114.44,3203.16 2106.49,2642.11 2588.4,2354.69 "/>
   <g>
    <path class="fil3" d="M2792.55 3380.61c-6.57,14.9 -8.45,7.4 -18.39,5.95 -9.61,-20.26 -5.58,-9.63 2.71,-22.98 6.39,1.72 23.87,-1.52 15.68,17.03zm198.42 868.79l-34.89 -19.49 -0.22 -725.44c0.02,-44.51 0.06,-89.03 0.23,-133.54 0.54,-141.37 -12.62,-54.46 -16.67,-120.68 -3.83,-62.6 18,-16.8 16.83,-121.2 -0.54,-47.78 -7.96,-43.76 -9.49,-53.59 -1.92,-12.36 3.04,-10.49 5.87,-23.39 15.95,-72.88 -52.48,-10.45 -34.4,-152.75l-33.38 7.86c-8.38,-49.24 -39.27,-41.53 -67.69,-18.28 -3.13,33.19 1.84,19.16 5.87,35.35 0.33,1.32 0.93,3.08 1.2,4.38 3.65,17.57 -2.85,11.39 2.73,25.4 10.32,25.93 31.66,7.18 36.07,42.77 4.03,32.54 -21.97,30.05 -30.12,57.13 -13,43.19 18.3,56.39 22.23,62.62l-25.7 25.44 -0.71 1016.78 -36.42 -20.34c1.87,-297.31 2.23,-606.65 -7.42,-632.82 -19.64,10.05 -12.33,35.82 -12.09,62.33 0.81,88.74 2.26,326.25 2.65,561.08l-46.13 -25.77c0.24,-51.35 0.4,-102.59 0.34,-153.65l2.01 -431.5c6.25,-20.74 48.86,-48.1 22.42,-111.67 -16.28,-39.14 -25.88,-7.98 -25.45,-66.8 0.2,-27.19 6.84,-65.14 -9.03,-80.43 -14.37,23.55 -5.3,73.4 -7.68,103.59 -119.44,-9.12 -142.42,162.85 1.05,157.46l-0.08 573.84 -100.67 -56.23 -24.05 -13.44 -1.2 -780.14 -121.13 61.55c-45.3,-8.25 -121.33,-63.33 -173.38,-82.22l-3.88 -390.5 1.17 -300.32 298.61 -178.09 114.35 -68.2c0.06,3.44 0.11,6.87 0.18,10.3 0.97,53.24 14.96,22.47 33.25,65.74 10.51,24.86 10.24,56.94 -6.66,77.02 -8.71,10.35 -24.2,17.23 -28.73,22.94 -4.19,5.28 -6.59,-8.82 -7.18,18.56 -0.64,29.35 -8.13,4.8 36.77,39.83 23.98,18.71 8.53,0.83 21.06,29.05 9.64,-13.44 -0.76,6.42 1.45,-11.48 5.54,-44.88 17.78,-6.32 43.08,-49.63 -15.59,-38.89 -57.53,-19.46 -19.09,-53.45 16.43,17.49 21.56,55.33 32.27,68.09 52.89,-0.38 42.6,-68.58 104.83,-46.26 55.01,19.73 22.46,94.56 22.49,104.92 30.52,0.92 13.83,2.02 31.76,-11.12l21.78 -15.77c-3.51,-35.43 -27.8,-12.54 9.44,-41.65l25.06 26.05c3.99,9.73 -12.01,18.8 19.46,25.93 15.12,-24.9 -1.42,-14.5 -0.8,-38.09l6.33 -20.7c4.54,-10.78 0.72,-4.09 6.24,-13.17 0.13,-0.22 11.29,-12.46 13.67,-15.01l47.94 37.7c17.09,17.26 -10.7,5.89 14.46,14.55l4.43 -42.88c2.79,-5.04 -3.36,-2.05 8.43,-8.26 24.39,-12.86 56.57,12.01 62.18,37.3 0.35,1.6 0.81,6.67 1.01,8.28l0.31 17.49c-3.05,11.06 0.74,-8.19 -4.54,8.92 -9.91,32.14 14.54,4.01 25.42,6.18 11.12,25.9 1.48,11.96 17.75,32.45 8.13,10.24 11.82,14.42 18.74,24.94l43.36 -4.56 -0.49 28.7c-2.94,13.44 -4.13,23.48 -3.06,39.29 20.22,18.75 49.44,32.06 33.36,71.98 -32.62,31.34 -1.94,-12.7 -54.31,19.75l-5.6 -42.07c-4.81,-32.88 -39.38,-36.12 -41.31,6.18 -0.73,15.95 25.17,-4.36 -5.9,24.16l26.01 23.81 -28.29 6.5c14.12,16.29 22.74,2.34 5.43,28.73 -1.9,-0.94 -33.59,-36.95 -63.31,-19.22l-12.07 -3.1 -0.05 -23.09c-5.23,-11.15 -4.02,-9.68 -7.13,-18.09 -11.14,-3.65 -20.86,-7.06 -37.9,-5.24 -9.04,18.22 -12.79,29.76 -3.48,52.46l-12.97 11.59c-21.6,11.93 -37.43,26.06 -23.88,57.35 8.35,14.89 13.1,29.95 16.16,52.97 6.97,77.55 -26.68,119.14 -98.25,123.26l-0.86 1222.77zm-216.41 -930.76c0.34,-0.12 19.88,-20.44 18.72,6.81 -0.64,14.87 -5.79,9.57 -18.93,12.89l0.21 -19.69zm-117.89 -131.78c13.66,-12.58 45.79,2.11 31.96,26.04 -11.64,20.13 -37.97,15.16 -31.96,-26.04zm69.32 -29.41c11.98,20.37 6.72,10.84 -6.36,20.17 -7.16,-9.14 -6.39,0.02 -3.88,-13.52 2.45,-13.21 1.58,-3.56 10.24,-6.65zm54.41 -13.53c12.69,-13.35 -22.03,-8.37 14.06,-13.8 -5.43,15.4 3.8,7.15 -14.06,13.8zm-95.43 -75.09c5.88,14.83 4.14,1.56 4.48,16.24 0.73,31.59 1.58,2.09 -5.55,15.23 -40.84,11.27 -43.57,-40.14 1.07,-31.47zm127.24 -20.65c-9.6,23.91 -22.44,23.99 -23.23,-7.59 25.01,2.1 8.48,-4.91 23.23,7.59zm-58.79 4.79c-0.09,-4.82 -2.83,-6.56 8.32,-1.46 13.22,6.05 -7.93,21.81 -8.32,1.46zm17.39 -94.62c38.1,0.1 39.8,24.13 5.17,30.33 -11.33,-17 -8.02,-6.07 -5.17,-30.33zm-327.05 27.25c-10.27,-5.55 -8.18,-13.77 -7.75,-25.07l22.93 3.1c0.19,12.74 4.56,32.63 -15.18,21.97zm619.25 -28.02c0.99,-20.04 -8.87,-1.41 6.6,-3.53 10.54,-1.44 -7.44,20.51 -6.6,3.53zm-257.69 -37.75l-3.03 16.33c-22.01,-15.63 -0.78,-15.48 3.03,-16.33zm-47.72 12.31c19.4,-8.29 9.26,-9.55 17.01,6.02 -13.77,6.72 -8.66,8.13 -17.01,-6.02zm-152.45 -25.95c3.35,5.58 10.11,4.8 0.79,21.8 -14.59,0.74 -33.43,-13.72 -0.79,-21.8zm141.77 -3.88c-20.1,7.38 -24.96,0.07 -45.57,11.72 -12.88,7.28 -11.64,17.73 -38.21,16.27 -30.22,-1.66 -52.11,-34.52 -37.92,-72.15 22.6,-59.96 108.36,5.08 110.49,7.02 12.71,11.56 13.68,19.79 11.21,37.14zm-172.89 -32.67c12.89,-0.47 29.65,-2.43 22.18,16 -8.42,20.78 -18.94,4.58 -24.26,1.92l2.08 -17.93zm191.56 -22.41c-5.27,24.32 6.04,18.04 -18.06,19.14 1.79,-24.7 -6.56,-12.72 18.06,-19.14zm159.87 -44.58c8.45,18.23 4.14,17.14 2.02,26.8l-24.35 1.14c-7.39,-23.22 -5.15,-37.01 22.33,-27.94zm-94.99 -0.31c7.99,19.36 7.46,1.74 1.86,27.39l-27.46 1.83 1.72 -28.25 19.03 -2.72c0.78,-1.74 3.23,1.19 4.85,1.75zm-73.63 19.46c-6.98,14.26 -8.02,6.67 -20.89,9.3 -7.97,-22.04 -9.85,-33.77 16.52,-28.6 0.29,0.56 13.35,0.94 4.37,19.3zm231.06 -79.15c27.88,-30.77 50.64,13.12 31.62,31.47 -18.68,18.02 -54.05,-6.7 -31.62,-31.47zm-106.6 5.14c-0.81,11.67 -1.12,12.79 -8.8,19.44 -34.84,30.16 -60.24,-65.07 2.77,-41.77 0.77,1.61 7.57,0.28 6.03,22.33zm190.68 -29.12c8.09,2.07 31.84,2.24 17.95,17.45 -16.92,18.53 -15.3,-7.38 -17.95,-17.45zm-167.95 -8.72c24.05,22.82 6.29,31.35 -20.45,24.99 3.76,-22.24 2.63,-18.92 20.45,-24.99zm419.7 10.68c-10.27,-8.71 -6.89,-2.99 -12.11,-17.57 12.76,-12.49 7.95,-6.19 23.01,-3.18 -0.55,16.57 1.44,10.89 -10.91,20.75zm-171.59 13.6c-8.27,-22.41 -8.86,-10.46 -19.88,-32.22 10.5,4.02 7.22,2.98 13.48,6.79 0.74,0.45 2.81,3.93 3.35,2.82 0.52,-1.07 1.95,2.04 2.94,3.04 10.63,-10.83 36.86,-19.51 42.4,3.05 5.69,23.18 -24.56,18.63 -42.29,16.51zm-63.7 -53.57c4.4,7.12 14.83,-11.1 4.09,26.62 -28.65,-0.01 -33.92,-15.53 -4.09,-26.62zm-110.88 22.45c-68.35,-79.94 77.15,-106.1 37.62,-3.12l-37.62 3.12zm-68.3 -50.21c4.59,40.69 -23.79,37.67 -32.69,21.02 -12.1,-22.64 13.46,-27.92 32.69,-21.02zm249.12 -38.03c64.25,26.41 -50.77,47.9 0,0zm-360.15 -39.64c48.24,-19.62 67.59,59.75 27.15,76.41 -49.43,20.36 -85.49,-52.69 -27.15,-76.41zm483.47 28.64c8.91,22.16 -2.35,19.83 -2.5,19.99 -17.28,-12.94 -15.58,-17.35 2.5,-19.99zm-763.43 -25.58c32.8,-33.94 61.21,21.38 35.7,42.16 -20.28,16.52 -67.56,-9.2 -35.7,-42.16zm404.81 32.33c-23.54,-10.72 2.06,19.84 -5.56,-8.85 -8.12,-30.62 -4.58,3.77 5.56,-8.7 17.86,33.76 0.02,17.52 0,17.55zm186.68 -43.08c4.58,17.17 3.79,30.27 -3.86,44.62 -44.63,13.49 -47.1,-13.37 -38.81,-47.34l42.67 2.72zm-708.12 -37.15c9.42,20.35 9,13.44 -6.36,23.43 -16.71,-9.15 -15.57,-4 -6.37,-23.84l12.73 0.42zm744.43 -15.84c25.1,10.76 23.39,20.21 -0.76,28.32 -8.81,-12.71 -6.94,10.6 -5.72,-16.91 1.04,-23.56 -4.66,0.64 6.48,-11.41zm-324.73 -1.97c8.01,4.77 9.71,-6.44 8.87,10.23 -1.06,21.08 1.25,1.09 -8.87,7.95 -13.48,-17.37 -2.51,-13.78 0,-18.18zm-250.4 -59.74c-22.87,5.86 -6.61,6.76 -25.94,-1.03 -9.51,-37.57 33.91,-37.1 25.94,1.03z"/>
    <path class="fil4" d="M3830.84 3292.04c34.64,4.83 32.57,12.96 59.34,23.7l128.5 -63.38 -0.36 -655.52 -234.52 -131 -0.93 790.62c18.9,15.13 39.68,15.63 47.97,35.58z"/>
    <path class="fil5" d="M2268.84 2842.96l13.98 -8.46 5.79 -1.39 1.17 -300.32 -183.3 109.32 2.15 151.94 6.42 4.23c5.28,188.5 3.96,403.72 2.35,615.1l4.97 350.84 43.76 24.44c0.05,-146.01 -1.79,-308.17 -1.73,-354.14 0.22,-162.79 -5.19,-414.23 -0.41,-572.93 0.13,-4.28 0.5,-14.08 1.27,-17.99l7.47 -17.4c24.24,23.66 11.77,255.76 11.71,303.08l-0.06 642.27c0.02,9.11 0.03,18.21 0.03,27.32l59.39 33.18 -0.23 -932.04c-0.04,-39.58 -5.58,-46.52 25.25,-57.05z"/>
    <path class="fil6" d="M3712.72 3604.82c15.83,16.47 -14.48,16.46 -16.97,17.13 1.81,-10.02 -1.31,-36.15 16.97,-17.13zm303.88 161.28l-254.22 151.62c-46.37,21.81 -84.91,39.52 -100.13,46.03l-0.04 13.71 -58.65 34.98 0.73 -489.4 104.58 -53.04 1.01 -111.79c30.9,-27.78 81.13,-44.59 120.96,-66.17 34.64,4.83 32.57,12.96 59.34,23.7 4.35,12.78 -0.25,5.42 6.99,14.87 34.45,-2.96 81.53,-37.58 119.85,-48.35l-0.43 483.83z"/>
    <path class="fil7" d="M2465.87 3305.83c-45.3,-8.25 -121.33,-63.33 -173.38,-82.22l-0.2 635.51 173.09 96.69 0.48 -649.98z"/>
    <path class="fil8" d="M3190.22 3131l-39.15 -3.1 0.56 1154.06 36.31 -21.66 2.61 -978.26c3.88,-27.24 -13.48,14.29 6.01,-20.44 24.63,7.26 13.36,-2.95 17.78,15.6 9.93,41.72 -13.47,0.79 -3.54,40.14 10.25,40.59 5.36,123.7 3.85,167.74 24.91,1.25 24.44,-1.03 24.96,24.89l-25.21 1.37 0.83 732.68 39.43 -23.51c3.49,-324.24 1.58,-683.81 -0.94,-1002.25 -0.1,-12.69 -1.25,-32.68 -0.01,-44.54 3.65,-34.92 7.14,-13.42 12.83,-40.01 7.37,-34.43 -18.83,-53.74 -46.58,-38.9 -37.35,19.98 11.48,38.04 -6.68,159.18 -35.43,-18.54 -22.81,-53.66 -23.06,-122.99z"/>
    <path class="fil8" d="M2872.63 3269.18l-2.59 912.67 44.71 24.98 -0.37 -941.48c-21.51,4.3 -31.42,2.6 -41.75,3.84z"/>
    <path class="fil9" d="M3066.47 3828.78l0.59 463.13 20.79 11.62 0.6 -474.74c0.03,-28.31 5.88,-78.87 -6.36,-99.06 -24.41,15.45 -15.69,37.01 -15.63,99.06z"/>
    <path class="fil4" d="M3559.73 2847.61c-116.59,24.09 -73.72,178.32 29.82,154.42 100.41,-23.18 68.7,-174.77 -29.82,-154.42z"/>
    <path class="fil10" d="M3160.46 2219.81c-42.08,21.19 -53.12,58.81 -35.77,97.34 12.18,27.05 50.22,54.99 89.6,35.32 75.54,-37.73 33.84,-176.82 -53.83,-132.66z"/>
    <path class="fil6" d="M3459.05 3103.73c-80.45,40.19 -24.86,138.96 43.59,109.17 66.01,-28.72 26.49,-144.18 -43.59,-109.17z"/>
    <path class="fil11" d="M2746.94 2902.32c2.47,-17.35 1.5,-25.58 -11.21,-37.14 -2.13,-1.94 -87.89,-66.98 -110.49,-7.02 -14.18,37.63 7.71,70.49 37.92,72.15 26.56,1.46 25.33,-8.99 38.21,-16.27 20.61,-11.65 25.47,-4.34 45.57,-11.72z"/>
    <path class="fil12" d="M3295.01 4196.45c0.22,-35.65 0.52,-71.28 0.47,-106.95 -0.07,-48.38 8.91,-224.58 -9.89,-253.66l-5.31 369.39 14.74 -8.79z"/>
    <path class="fil13" d="M3044.5 3249.69c-52.25,31.91 -11.31,96.52 38.31,77.61 51.25,-19.53 20.38,-113.45 -38.31,-77.61z"/>
    <path class="fil14" d="M3433.07 2721.25c-59.15,24.6 -23.53,100.61 28.11,83.02 52.67,-17.94 23.81,-104.61 -28.11,-83.02z"/>
    <path class="fil15" d="M2282.82 2834.5l-13.98 8.46c-3.69,46.09 -5.42,378.23 5.66,397.19 10.22,-19.12 9.28,-355.42 8.32,-405.64z"/>
    <path class="fil16" d="M3387.28 2405.72c9.45,-83.5 -66.49,-79.66 -79.06,-36 -7.19,24.98 3.77,48.8 20,56.13 25.71,11.62 42.28,-6.68 59.06,-20.13z"/>
    <path class="fil17" d="M3127.89 3078.09c12.83,-7.2 42.48,11.05 62.51,17.89l-0.01 -87.53 -35.55 -3.8c-0.06,8.77 0.94,21.71 0.46,29.62 -1.49,24.7 -2.7,23.12 -9.62,30.98 -27.16,-7.46 -16.52,-29.46 -32.16,-35.81 -38.75,-0.18 -41.37,18.1 -32.63,50.21 26.05,8.55 22.81,11.27 46.99,-1.57z"/>
    <path class="fil18" d="M3305.12 2796.59c-4.81,40.99 12.56,79.26 55.66,58.55 47.9,-23.01 12.52,-63.23 3.87,-75.6 -38.23,-4.63 -33.97,-3.34 -59.53,17.04z"/>
    <path class="fil19" d="M2798.26 2575.25c-58.34,23.72 -22.28,96.77 27.15,76.41 40.44,-16.66 21.09,-96.03 -27.15,-76.41z"/>
    <path class="fil20" d="M3418.39 3325.14l-14.25 -49.52c-17.92,6.8 -82.8,-13.27 -66.7,48.78 10.26,39.55 60.54,37.81 80.96,0.74z"/>
    <path class="fil20" d="M3663.17 3394.68c-67.63,-18.23 -79.42,39.36 -51.04,63.08 33.18,27.73 80.75,-2.85 51.04,-63.08z"/>
    <path class="fil21" d="M3211.64 2939.91l3.67 11.7c54.27,16.93 24.72,10.41 57.12,-4.63 11.7,7.42 29.09,26.19 29.65,-0.07 0.27,-12.97 -7.07,-44.36 -13.03,-56.42 -18.43,3.4 -17.57,10.58 -37.68,20.02 -30.91,14.51 -31.53,-1.16 -39.72,29.4z"/>
    <path class="fil4" d="M3585.13 2404.35c-35.21,27.79 7.24,85.03 43.65,57.43 34.35,-26.04 -5.96,-87.18 -43.65,-57.43z"/>
    <path class="fil22" d="M2977.58 2703.13l37.62 -3.12c39.54,-102.98 -105.97,-76.83 -37.62,3.12z"/>
    <path class="fil23" d="M3073.92 2850.41c8.35,14.89 13.1,29.95 16.16,52.97 38.67,-7.63 46.6,-9.21 47.4,-48.23 -15.05,-16.14 -24.83,-24.72 -53.26,-22.25 -15.7,15.94 -2.83,2.65 -10.3,17.51z"/>
    <path class="fil24" d="M3546.31 2520.59c9.22,-16.72 7.02,-19.07 7.15,-46.24 0.15,-31.78 3.61,-98.8 -0.81,-137.63l-13.3 -7.43c-4.85,24.2 -0.47,58.5 -0.31,81.41 0.13,19.09 -0.09,38.16 -0.17,57.25l1.15 38.03c5.64,26.67 -0.81,2.26 6.3,14.61z"/>
    <path class="fil4" d="M3443.44 3033.9l26.19 26.38c17.99,9.83 29.84,4.54 45.12,-0.85 2.67,-31.79 -8.91,-38.77 -25.67,-56.22 -20.02,7.01 -32.55,15.31 -45.64,30.7z"/>
    <path class="fil25" d="M3374.62 3140.79c24.52,-23.07 22.35,-28.98 7.23,-55.94 -65.45,-8.51 -65.76,60.85 -7.23,55.94z"/>
    <path class="fil26" d="M2518.31 2578.31c-31.86,32.96 15.43,58.68 35.7,42.16 25.51,-20.78 -2.9,-76.1 -35.7,-42.16z"/>
    <path class="fil5" d="M3151.07 3127.9l39.15 3.1 0.18 -35.03c-20.03,-6.85 -49.68,-25.09 -62.51,-17.89l1.04 10.07c3.8,29.59 6.21,14.04 22.14,39.75z"/>
    <path class="fil14" d="M2965.47 2132.22l36.58 2.57c5.19,-12.59 8.81,-23.44 8.79,-32.05l-46.2 27.55 0.82 1.92z"/>
    <path class="fil27" d="M2879.02 3166.41c-12.41,6.37 -22.56,13.63 -12.64,37.39 5.76,13.8 22.81,21.21 38.71,9.56 22.26,-16.32 6.72,-63.77 -26.06,-46.95z"/>
    <path class="fil28" d="M3110.78 2781.47c15.22,8.12 -6.83,5.05 22.22,4l26.29 -33.14c-5.23,-11.15 -4.02,-9.68 -7.13,-18.09 -11.14,-3.65 -20.86,-7.06 -37.9,-5.24 -9.04,18.22 -12.79,29.76 -3.48,52.46z"/>
    <path class="fil19" d="M3067.13 2564.84c-8.29,33.97 -5.81,60.83 38.81,47.34 7.65,-14.35 8.44,-27.46 3.86,-44.62l-42.67 -2.72z"/>
    <path class="fil29" d="M3735.13 2467.94c-14.38,-40.5 -47.97,-27.11 -48.83,0.12 -0.92,29.41 34.94,42.99 48.83,-0.12z"/>
    <path class="fil30" d="M2875.28 2725.46c-63.01,-23.3 -37.61,71.93 -2.77,41.77 7.68,-6.65 7.99,-7.77 8.8,-19.44 1.54,-22.05 -5.27,-20.73 -6.03,-22.33z"/>
    <path class="fil26" d="M2987.92 2742.66c-22.44,24.77 12.93,49.49 31.62,31.47 19.03,-18.35 -3.74,-62.25 -31.62,-31.47z"/>
    <path class="fil31" d="M3016.9 3589.38c38.92,11.88 43.13,-26.92 29.86,-37.01 -10.77,-8.18 -25.51,-8.23 -34.84,2.69 -11.5,13.46 0.49,28.16 4.99,34.32z"/>
    <path class="fil32" d="M2964.69 2448.86c8.73,12.61 18.64,15.96 33.44,22.89l16.68 -29.35c-2.44,-3.46 -6.36,-8.9 -9.34,-12.28 -8.47,-9.62 -5.34,-6.09 -12.41,-12.26 -27.84,20.63 -14.5,0.63 -28.38,30.99z"/>
    <path class="fil33" d="M3404.14 3275.62l14.25 49.52 17.7 0.28 0.71 -60.47c-23.7,-0.73 -18.57,-0.78 -32.66,10.67z"/>
    <path class="fil34" d="M3110.78 2781.47l-12.97 11.59c53.29,-15.99 5.24,30.29 63.32,10.04 0.94,-1.39 2.56,-5.02 2.89,-4.12l7.4 -20.44 -12.07 -3.1 -0.05 -23.09 -26.29 33.14c-29.05,1.05 -7,4.12 -22.22,-4z"/>
    <path class="fil8" d="M3164.77 2861.07c15.45,-2.42 26.63,-4.67 25.43,-23.82 -1.41,-22.56 -18.16,-19.11 -32.43,-18.65 -12.67,19.98 -15.5,28.44 7,42.47z"/>
    <path class="fil35" d="M3152.16 2734.25c17.73,2.12 47.98,6.67 42.29,-16.51 -5.54,-22.56 -31.76,-13.88 -42.4,-3.05 -0.99,-1.01 -2.41,-4.11 -2.94,-3.04 -0.54,1.11 -2.61,-2.37 -3.35,-2.82 -6.26,-3.81 -2.99,-2.77 -13.48,-6.79 11.02,21.76 11.6,9.81 19.88,32.22z"/>
    <path class="fil36" d="M3398.98 2535.44l12.81 15.64c0.98,0.98 2.46,2.21 3.48,3.18 21,20 -0.03,12.13 29.83,15.08l4.66 -41.96 -50.79 8.05z"/>
    <path class="fil37" d="M3234.33 2524.88c36.29,-6.83 35.17,-37.07 6.75,-49.18 -22.97,18.09 -19,21.15 -6.75,49.18z"/>
    <path class="fil22" d="M2656.67 3186.86c-6.01,41.2 20.32,46.17 31.96,26.04 13.84,-23.93 -18.29,-38.62 -31.96,-26.04z"/>
    <polygon class="fil9" points="3215.3,2951.62 3211.64,2939.91 3177.62,2936.5 3170.8,2969.24 3202.9,2970.78 "/>
    <path class="fil9" d="M3309.76 3198.22l0.55 -22.66c-50.05,-27.07 -54.39,52.02 -0.55,22.66z"/>
    <path class="fil9" d="M2874.73 3083.65c18.41,15.28 48.77,28.08 44.17,-13.85 -23.26,-10.58 -36.74,-1.8 -44.17,13.85z"/>
    <path class="fil38" d="M3327.49 2554.2c2.82,-10.36 4.75,-3.19 2.87,-16.22 -3.54,-24.59 0.45,-3.57 -5.67,-13.67 -36.82,-16.83 -47.53,45.41 2.8,29.89z"/>
    <path class="fil39" d="M2683.91 3100.3c7.12,-13.15 6.28,16.36 5.55,-15.23 -0.34,-14.67 1.4,-1.41 -4.48,-16.24 -44.64,-8.67 -41.91,42.74 -1.07,31.47z"/>
    <path class="fil40" d="M2909.28 2652.92c-19.23,-6.9 -44.78,-1.61 -32.69,21.02 8.9,16.65 37.28,19.67 32.69,-21.02z"/>
    <path class="fil41" d="M3462.67 3560.15l13.79 -9.89c28.49,-30.18 11.29,-29.73 -0.1,-37.76 -19.38,13.21 -8.89,-5.95 -15.27,22.76 -1.94,8.75 -0.44,19.46 1.58,24.88z"/>
    <path class="fil42" d="M3022.61 2389.41l1.75 26.74c25.99,3.96 8.88,5.75 28.42,-3.01 0.54,-1.57 1.72,-5.63 1.68,-4.69 -0.01,0.25 0.57,-39.98 -31.85,-19.04z"/>
    <path class="fil43" d="M3178.19 2127.54c0.98,4.74 6.06,8.66 17.66,9.86l-17.66 -9.86z"/>
    <path class="fil9" d="M3722 3138.05l-27.1 -2.23c-8.73,46.97 38.62,46.19 27.1,2.23z"/>
    <path class="fil44" d="M3334.17 2593.7c-10.37,34.58 36.6,37.74 28.32,-5.76 -7.45,-0.77 -6.86,-2.32 -13.17,-0.76 -24.18,5.99 -5.15,0.33 -15.15,6.52z"/>
    <path class="fil21" d="M2530.43 3324.19c28.16,-2.62 27.38,-13.48 16.44,-34.18 -29.84,2.53 -28.88,13.7 -16.44,34.18z"/>
    <path class="fil35" d="M2903.15 2830.6l24.35 -1.14c2.12,-9.66 6.42,-8.57 -2.02,-26.8 -27.47,-9.06 -29.72,4.72 -22.33,27.94z"/>
    <path class="fil35" d="M2806.6 2803.32l-1.72 28.25 27.46 -1.83c5.6,-25.65 6.13,-8.03 -1.86,-27.39 -1.62,-0.56 -4.07,-3.49 -4.85,-1.75l-19.03 2.72z"/>
    <path class="fil45" d="M3119.27 2988.99c7.59,6.22 -0.49,5.68 13.98,8.32 12.84,2.34 7.07,0.6 18.71,-0.58 -0.9,-24.63 0.67,-22.82 -18.45,-32.37l-14.25 24.64z"/>
    <path class="fil22" d="M2545.04 2451.84c19.32,7.78 3.07,6.89 25.94,1.03 7.97,-38.12 -35.45,-38.6 -25.94,-1.03z"/>
    <path class="fil46" d="M3476.02 2424.69c8.21,-11.93 8.2,14.9 6.27,-13.76 -1.46,-21.67 1.94,-3.69 -8.5,-16.18 -31.61,4.18 -25.56,38.43 2.24,29.93z"/>
    <path class="fil33" d="M3699.84 2925.79c6.83,13.76 5.89,14.48 22.54,16.58 24.02,-34.89 -16.58,-44.3 -22.54,-16.58z"/>
    <path class="fil19" d="M2775.99 2988.68c34.63,-6.21 32.93,-30.23 -5.17,-30.33 -2.85,24.26 -6.16,13.33 5.17,30.33z"/>
    <path class="fil47" d="M3538.44 2595.65c9.38,5.97 9.31,7.71 23.4,1.64l2.82 -9.16c-4.24,-30.94 -37.53,-22.76 -26.23,7.52z"/>
    <path class="fil39" d="M3277.63 2406.55c-1.27,4.64 -21.18,-0.88 1.6,28.89 21.46,-3.2 29.98,-4.01 12.72,-29.78l-14.33 0.88z"/>
    <path class="fil48" d="M2735.97 2831.11c12.87,-2.63 13.91,4.96 20.89,-9.3 8.98,-18.36 -4.07,-18.74 -4.37,-19.3 -26.37,-5.17 -24.49,6.57 -16.52,28.6z"/>
    <path class="fil36" d="M3037.36 3191.47c11.62,-16.73 11.06,-8.18 3.31,-31.79 -16.86,3.73 -19.07,-3.83 -21.63,14.54 -2.25,16.17 7.75,14.71 18.32,17.26z"/>
    <path class="fil49" d="M3158.41 2614.89c-50.77,47.9 64.25,26.41 0,0z"/>
    <path class="fil38" d="M3227.91 2869.25c29.66,-0.05 27.68,1.09 22.04,-27.8 -23.24,4.44 -24.55,-4.04 -22.04,27.8z"/>
    <path class="fil50" d="M2883.6 2734.95c26.74,6.36 44.5,-2.17 20.45,-24.99 -17.82,6.07 -16.69,2.75 -20.45,24.99z"/>
    <path class="fil39" d="M3214.4 3511.35l25.21 -1.37c-0.51,-25.92 -0.05,-23.64 -24.96,-24.89l-0.25 26.26z"/>
    <path class="fil38" d="M2838.51 2419.04c63.14,-2.38 -1.8,-60.74 0,0z"/>
    <path class="fil51" d="M3092.55 2707.3c10.74,-37.72 0.31,-19.5 -4.09,-26.62 -29.83,11.09 -24.55,26.61 4.09,26.62z"/>
    <path class="fil52" d="M2571.97 2887.57c5.32,2.66 15.84,18.86 24.26,-1.92 7.47,-18.44 -9.29,-16.47 -22.18,-16l-2.08 17.93z"/>
    <path class="fil34" d="M2458.95 2963.63l-22.93 -3.1c-0.43,11.3 -2.51,19.52 7.75,25.07 19.74,10.67 15.37,-9.23 15.18,-21.97z"/>
    <path class="fil36" d="M3690.44 3072.97c7.9,4.27 -12.17,11.57 13.69,4.3 14.05,-3.95 3.95,1.42 11.22,-11.59 -14.3,-25.34 -31.56,-12.91 -24.92,7.28z"/>
    <path class="fil53" d="M2701.12 3448.04c1.51,-58.31 -60.6,-1.39 0,0z"/>
    <path class="fil54" d="M3119.27 2988.99l14.25 -24.64 -25.35 -6.56c-0.7,10.66 -5.55,1.87 0.14,17.87 9.52,26.77 2.26,6.55 10.97,13.33z"/>
    <path class="fil45" d="M3694.7 2857.98c9.21,-27.15 5.54,-14.02 -4.19,-24.57 -26,7.79 -24.85,26.8 4.19,24.57z"/>
    <path class="fil51" d="M2774.16 3386.56c9.94,1.45 11.82,8.94 18.39,-5.95 8.19,-18.56 -9.29,-15.31 -15.68,-17.03 -8.29,13.36 -12.32,2.72 -2.71,22.98z"/>
    <path class="fil55" d="M3145.35 2542.89c24.15,-8.11 25.85,-17.56 0.76,-28.32 -11.14,12.05 -5.44,-12.15 -6.48,11.41 -1.22,27.51 -3.09,4.2 5.72,16.91z"/>
    <path class="fil56" d="M3495.44 2473.64l16.64 -1.23 -0.84 -24.37c-23.36,3.91 -29.74,1.77 -15.81,25.6z"/>
    <path class="fil57" d="M3279.07 3802.82c15.68,0.14 23.82,3.54 23.56,-12 -0.23,-13.42 -8.21,-10.82 -21.09,-10.38l-2.47 22.38z"/>
    <path class="fil58" d="M3291.06 3453.59l22.51 8.77c4.21,-35.53 -19.45,-39.51 -22.51,-8.77z"/>
    <path class="fil59" d="M3120.17 2417.06l32.96 0 -1.68 -17.02c-25.51,1.83 -26.98,0.25 -31.28,17.02z"/>
    <path class="fil60" d="M3198.44 2822.39l19.62 1.06c0,-0.03 21.15,-12.71 -14.47,-23.08 -5.88,9.8 -6.82,5.55 -5.14,22.02z"/>
    <path class="fil61" d="M3241.34 3050.85c22.68,-9.02 24.31,-19.19 0.15,-27.67 -10.41,17.67 -11.22,10.03 -0.15,27.67z"/>
    <path class="fil57" d="M3283.53 3669.8c17.1,10.58 -23.46,6.32 9.37,4.96 11.73,-0.48 7.1,-0.71 13.44,-4.23 4.98,-19.86 -18.58,-34.29 -22.81,-0.73z"/>
    <path class="fil62" d="M3514.52 3624.43c16.39,-20.52 14.69,-15.64 -6.36,-24.89 -3.12,4.09 -11.11,-7 -6.88,13.22 4.02,19.23 -1.43,6.58 13.24,11.68z"/>
    <path class="fil46" d="M3424.18 4032.03c23.51,-4.52 23.33,-0.9 14.78,-24.5 -22.2,5.56 -21.45,1.55 -14.78,24.5z"/>
    <path class="fil63" d="M3557.49 3251.69c0.08,-27.48 2.4,-21.08 -19.89,-30.2 2.54,32.35 -4.5,20.23 19.89,30.2z"/>
    <path class="fil64" d="M2395.32 2553.84c15.36,-9.99 15.78,-3.08 6.36,-23.43l-12.73 -0.42c-9.2,19.84 -10.33,14.69 6.37,23.84z"/>
    <path class="fil55" d="M2774.56 3318.64l-0.21 19.69c13.14,-3.32 18.29,1.98 18.93,-12.89 1.16,-27.25 -18.38,-6.92 -18.72,-6.81z"/>
    <path class="fil44" d="M3264.72 2791.35c-6,22.91 14.57,32.67 21.99,0.9 -13.21,-7.01 14.74,-4.51 -8.95,-4.06 -9.5,0.18 -8.72,1.26 -13.03,3.16z"/>
    <path class="fil32" d="M3018.51 3238.61c17.92,-9.67 21.82,-4.01 6.36,-25.06 -9.65,3.92 -7.07,-7.3 -11.49,7.45 -8.09,26.99 0.96,12.42 5.13,17.61z"/>
    <path class="fil64" d="M3579.31 2738.09c11.5,0.58 15.76,4.11 20.4,-6.45 7.31,-16.64 -7.12,-13.68 -17.52,-16.44l-2.88 22.9z"/>
    <path class="fil33" d="M3214.4 3511.35l0.25 -26.26c-30.69,4.89 -13.23,2.72 -20.24,13.02 10.44,15.99 -7.02,6.99 19.99,13.25z"/>
    <path class="fil65" d="M3652.55 2672.86c-52.35,-2.51 3.57,52.69 0,0z"/>
    <path class="fil51" d="M2812.22 3048.18c-14.75,-12.5 1.78,-5.49 -23.23,-7.59 0.79,31.58 13.63,31.5 23.23,7.59z"/>
    <path class="fil66" d="M3424.58 2991.53c19.73,3.25 32.54,-15.69 0.91,-22.77 -8.69,16.17 -4.92,-23.96 -4.23,9.2 0.22,10.66 -0.41,7.74 3.32,13.57z"/>
    <path class="fil67" d="M3616.26 3314.7c7.58,-10.97 7.97,12.9 6.16,-13.64 -1.58,-23.19 5.38,1.79 -5.66,-10.82 -25.19,9.97 -22.34,15.18 -0.5,24.46z"/>
    <path class="fil68" d="M3311.64 2703.07c5.21,14.58 1.84,8.86 12.11,17.57 12.35,-9.86 10.36,-4.18 10.91,-20.75 -15.06,-3.01 -10.26,-9.31 -23.01,3.18z"/>
    <path class="fil69" d="M3045.95 3129.28c9.09,15.39 -0.71,6.84 18.65,12.37l2.89 -19.94c-8.18,-1.74 -17.87,-12.62 -21.53,7.57z"/>
    <path class="fil70" d="M3107.54 3216.75c29.54,-29.5 1.7,-18.9 0,-21.33 -0.32,0.45 -32.09,-4.72 0,21.33z"/>
    <path class="fil69" d="M3167.33 2896.65l20.58 -0.59c-0.9,-14.91 7.47,-10.08 -15.86,-19.19 -7.77,10.35 -11.99,-9.09 -4.72,19.78z"/>
    <path class="fil46" d="M3431.85 3828.01c15.05,-18.63 15.88,-15.71 -6.36,-23.75 -11.34,17.64 -13.36,15.01 6.36,23.75z"/>
    <path class="fil61" d="M3413.12 3383.64c8.89,20.58 14.06,24.26 22.94,0 -20.27,-17.52 -9.03,-10.78 -22.94,0z"/>
    <path class="fil36" d="M3663.21 3086.32c-1.13,-10.35 3.62,-37.98 -16.42,-17.43 -14.05,14.41 8.7,15.79 16.42,17.43z"/>
    <path class="fil71" d="M3695.75 3621.95c2.49,-0.67 32.8,-0.67 16.97,-17.13 -18.28,-19.02 -15.16,7.11 -16.97,17.13z"/>
    <path class="fil72" d="M2605.96 2927.99c9.32,-16.99 2.55,-16.22 -0.79,-21.8 -32.64,8.08 -13.8,22.54 0.79,21.8z"/>
    <path class="fil73" d="M3465.73 2615.22c11.65,2.41 12.68,11.07 19.12,-4.15 6.28,-14.86 -7.26,-13.19 -15.39,-15.46l-3.73 19.61z"/>
    <path class="fil49" d="M3072 2718.68c2.65,10.08 1.03,35.98 17.95,17.45 13.9,-15.22 -9.85,-15.38 -17.95,-17.45z"/>
    <path class="fil64" d="M3317.33 2238.95c9.45,-1.4 7.89,6.21 14.97,-4.48 13.2,-19.91 -1.35,-14.92 -2.2,-16.65 -22.41,10.06 -10.12,-9.24 -12.77,21.13z"/>
    <path class="fil61" d="M2878.25 2963.95c17.55,7.83 18.43,3.45 25.15,-12.38 -41.58,-3.23 -19.37,6.65 -25.15,12.38z"/>
    <path class="fil74" d="M3352.28 3041.37c16.98,-6.93 9.54,7.65 14.07,-9.08 6.72,-24.81 1.99,-2.43 -4.45,-13.54 -8.43,5.3 -18.21,-7.16 -9.62,22.62z"/>
    <path class="fil53" d="M3601.26 3176.11c7.65,-1.83 31.43,-0.97 16.16,-16.41 -16.88,-17.07 -14.61,8.01 -16.16,16.41z"/>
    <path class="fil36" d="M3686.21 3310.88c-3.81,6.76 -15.41,-8.57 -4.14,13.93 2.25,4.5 -5.71,8.37 8.92,4.47 27.74,-7.41 -0.05,-15.7 -4.78,-18.4z"/>
    <path class="fil46" d="M3355.54 3235.03c13.51,-6.77 20.76,2.9 6.36,-20.74 -14.93,5.17 -25.9,2.28 -6.36,20.74z"/>
    <path class="fil44" d="M3551.44 3361.83c12.74,-15.84 14.07,-12.44 -5.12,-22.23 -11.04,16.9 -14.58,13.92 5.12,22.23z"/>
    <path class="fil64" d="M3054.37 3489.47c-4.68,23.62 -7.83,13.08 16.8,16.52 -3.93,-24.49 6.44,-21.2 -16.8,-16.52z"/>
    <path class="fil75" d="M3330.78 3389.46l0.25 -23.19c-8.85,2.74 -16.63,2.82 -16.58,11.32 0.1,15.62 4.66,8.31 16.33,11.87z"/>
    <path class="fil36" d="M3396.88 2251.73c1.62,1.22 -7.1,27.17 13.86,5.72l-13.28 -7.42c-0.05,0.84 -0.2,1.47 -0.58,1.7z"/>
    <path class="fil57" d="M3705.29 2653.08c14.11,-5.22 9.4,10.67 12.06,-8.23 2.31,-16.42 0.58,-4.61 -5.7,-13.91 -13.35,8.87 -17.91,4.62 -6.36,22.14z"/>
    <path class="fil76" d="M2890.6 3027.54c0.55,0.28 24.31,22.75 16.8,-5.01 -7.48,-27.64 -14.57,3.28 -16.8,5.01z"/>
    <path class="fil77" d="M3304.67 3260.43c21.07,-27.54 1.89,-16.69 0,-20.45 -1.04,1.34 -28.83,0.62 0,20.45z"/>
    <path class="fil78" d="M3094.82 3648.46l4.6 -9.91c-1.05,-13.75 0.91,-4.05 -4.6,-12.23 -21.32,9.54 -22.76,10.75 0,22.15z"/>
    <path class="fil41" d="M3542.33 3498.11c9.71,18.43 10.07,18.25 20.78,0 -14.09,-13.58 -4.63,-15.53 -20.78,0z"/>
    <path class="fil70" d="M3559.03 2772.64c10.32,-3.86 8.39,12.28 11.46,-7.75 2.38,-15.5 0.57,-4.61 -5.1,-13.98 -11.25,9.07 -17.69,5.66 -6.36,21.72z"/>
    <path class="fil63" d="M2747.55 2866.38c24.1,-1.1 12.79,5.18 18.06,-19.14 -24.61,6.42 -16.26,-5.55 -18.06,19.14z"/>
    <path class="fil70" d="M3336.46 2471.42c11.78,-17.62 5.57,-15.32 0,-22.57 -17.35,10.7 -21.19,9.42 0,22.57z"/>
    <path class="fil54" d="M3527.24 2557.49c1,-1.43 3.06,-5.16 3.09,-4.22 0.01,0.18 6.45,-1.65 -3.09,-20.06 -12.34,10.5 -24.29,11 0,24.28z"/>
    <path class="fil70" d="M3037.59 3079.68c2.57,-3.98 13.74,5.87 4.95,-12.68 -6.37,-13.45 3.79,-2.03 -11.31,-7.52 -6.76,14.65 -9.98,11.75 6.36,20.2z"/>
    <path class="fil74" d="M3492.36 2850.38c2.62,-27.79 0.14,-17.03 -14.78,-18.95 0.29,23.66 -6.36,12.35 14.78,18.95z"/>
    <path class="fil24" d="M2847.47 3320.05c34.62,24.42 20.14,1.92 23.8,0 -1.89,-1.36 -4.53,-6.47 -5.59,-4.18 -3.11,6.69 0.12,-13.32 -18.2,4.18z"/>
    <path class="fil75" d="M3297.54 3002.45c-2.74,11.35 -8.19,6.85 11.53,16 7.89,-11.87 6.55,-1.66 3.94,-17.41l-11.72 -1.51c-0.65,0.22 -2.38,2.13 -3.75,2.92z"/>
    <path class="fil73" d="M3425.49 2390.81c8.11,-16.15 7.65,-10.72 -6.36,-20.67 -3.51,6.34 -14.4,-9.14 -4.29,13.11 5.47,12.02 -2.73,3.55 10.65,7.55z"/>
    <path class="fil65" d="M3470.01 3698.35c3.11,-7.42 12.89,8.5 3.07,-12.96 -5.1,-11.14 2.36,-1.88 -9.43,-6.82 -13.26,20.38 -10.05,12.13 6.36,19.78z"/>
    <path class="fil53" d="M2922.33 2379.32c19.32,-3.83 22.52,1.36 13.51,-19.04 -19.78,6.67 -8.77,-12.19 -13.51,19.04z"/>
    <path class="fil70" d="M3597.19 3083.74c17.76,-12.69 15.45,-14.44 -8.32,-19.98 2.1,22.29 -4.78,8.68 8.32,19.98z"/>
    <path class="fil48" d="M2719.63 3177.62c13.08,-9.33 18.35,0.2 6.36,-20.17 -8.66,3.08 -7.79,-6.57 -10.24,6.65 -2.51,13.55 -3.28,4.38 3.88,13.52z"/>
    <path class="fil79" d="M3279.23 2623.89c0.15,-0.16 11.42,2.17 2.5,-19.99 -18.08,2.64 -19.79,7.05 -2.5,19.99z"/>
    <path class="fil80" d="M3321.02 3613.31c15.35,5.98 11.9,2.71 18.46,-7.1 -9.76,-5.3 11.79,-13.59 -13.47,-4.22 -8.91,3.31 -7.4,2.71 -4.99,11.32z"/>
    <path class="fil65" d="M3509.51 2696.05c5.06,-19.02 6.6,-10.13 -7.71,-19.63 -2.07,3.75 -13.67,-6.06 -3.77,12.02 5.76,10.52 -3.42,3.06 11.48,7.61z"/>
    <path class="fil36" d="M2834.1 2264.9c15.11,-8.03 14.65,-3.08 6.36,-19.04 -14.37,6 -21.33,2 -6.36,19.04z"/>
    <path class="fil44" d="M3355.08 2900.84c20.62,-4.28 17.53,3.71 15.3,-15.05 -19.29,-3.14 -11.08,-6.57 -15.3,15.05z"/>
    <path class="fil48" d="M2821.38 2530.78c10.12,-6.85 7.81,13.13 8.87,-7.95 0.84,-16.67 -0.86,-5.47 -8.87,-10.23 -2.51,4.41 -13.48,0.81 0,18.18z"/>
    <path class="fil63" d="M2757.62 2932.15c8.35,14.15 3.25,12.73 17.01,6.02 -7.75,-15.57 2.39,-14.31 -17.01,-6.02z"/>
    <path class="fil64" d="M3342.82 3824c14.51,-16.94 9.36,19.26 6.1,-8.28 -1.85,-15.66 3.54,-1.2 -6.1,-10.57 -15.43,18.59 -7.9,11.12 0,18.85z"/>
    <path class="fil54" d="M3706.41 2760.45c29.07,25.55 10.34,3.88 17.31,0 -1.72,-1.04 -4.15,-5.66 -4.9,-3.53l-8.68 -0c-0.75,0.25 -2.31,2.57 -3.73,3.54z"/>
    <path class="fil81" d="M2783.31 2353.47c0.12,8.05 13.93,15.57 9.79,0.33 -3.14,-11.56 -10.01,-15.41 -9.79,-0.33z"/>
    <path class="fil55" d="M2923.12 2610.64c0.02,-0.02 17.86,16.22 0,-17.55 -10.14,12.47 -13.68,-21.91 -5.56,8.7 7.61,28.69 -17.98,-1.87 5.56,8.85z"/>
    <path class="fil61" d="M3711.65 3256.07c10.31,-12.06 7.91,18.46 5.14,-7.1 -1.48,-13.62 2.5,-1.43 -5.14,-10.05 -9.16,10.87 -13.76,5.43 0,17.15z"/>
    <path class="fil77" d="M3380.98 3705.33c18.19,-22.96 2.59,-7.65 0,-14.13 -3.39,5.6 -22.4,-12.21 0,14.13z"/>
    <path class="fil72" d="M2753.43 3052.97c0.38,20.34 21.53,4.59 8.32,-1.46 -11.15,-5.1 -8.41,-3.36 -8.32,1.46z"/>
    <path class="fil79" d="M2802.3 2936.17l3.03 -16.33c-3.81,0.86 -25.05,0.71 -3.03,16.33z"/>
    <path class="fil70" d="M3056.66 2251.01c6.82,-12.12 10.3,1.51 0,-16.77 -8.81,8.84 -8.31,-18.55 -5.41,6.5 1.55,13.4 -6.26,2.02 5.41,10.27z"/>
    <path class="fil82" d="M2780.41 3143.92c17.85,-6.65 8.63,1.6 14.06,-13.8 -36.09,5.43 -1.36,0.45 -14.06,13.8z"/>
    <path class="fil59" d="M3293.68 2773.17c-0.24,21.19 23.09,1.41 7.01,-1.08 -5.98,-0.92 -6.93,-6.25 -7.01,1.08z"/>
    <path class="fil83" d="M3090.33 2315.32c-0.58,20.17 21.13,-2.9 6.63,-2.63 -9.34,0.18 -6.31,-8.83 -6.63,2.63z"/>
    <path class="fil84" d="M3063.03 2957.58c-0.84,16.98 17.14,-4.97 6.6,-3.53 -15.46,2.12 -5.61,-16.51 -6.6,3.53z"/>
    <path class="fil33" d="M2790.07 2436.14c26.01,17.86 9.94,2.84 16.07,0l-16.07 0z"/>
    <path class="fil77" d="M3419.13 3086.64c6.5,-10.58 4.12,-8.07 0,-16.81 -10.98,13.87 -14.14,-24.38 -5.37,8.35 8.27,30.86 -15.52,-3.76 5.37,8.47z"/>
    <path class="fil70" d="M3692.57 2998.46c1.12,-1.66 3.7,-5.93 3.59,-4.81 -0.1,0.96 1.68,-4.02 1.49,-4.96l-10.69 -0.05c0.22,0.93 1.36,4.05 1.64,4.97 0.34,1.11 2.29,3.61 3.97,4.85z"/>
   </g>
   <g>
    <polygon class="fil85" points="2455.76,3697.76 2455.76,2432.74 2572.77,2432.74 3296.23,3110.8 3296.23,2678.74 3119.88,2679.01 3507.12,2348.83 3876.35,2681.45 3708.22,2679.41 3708.22,3951.87 3594.04,3951.87 2867.75,3273.48 2867.75,3700.09 3025.9,3700.83 2652.62,4027.84 2301.39,3692.83 "/>
    <polygon class="fil86" points="2463.03,3760.57 2518.31,3762.34 2518.31,2495.29 2548.04,2495.29 3358.78,3255.14 3358.78,2616.1 3289.94,2616.2 3505.98,2431.99 3711.24,2616.89 3645.68,2616.1 3645.68,3889.33 3618.7,3889.33 2805.21,3129.47 2805.21,3762.34 2860.48,3762.6 2654.42,3943.12 "/>
   </g>
  </g>
  <g id="_2282446685280">
   <polygon class="fil1 str0" points="3069.31,4512.07 3590.08,4802.97 4110.86,5093.88 4119.31,5690.34 4127.77,6286.8 3615.45,6592.35 3103.13,6897.9 2582.35,6606.99 2061.57,6316.08 2053.12,5719.62 2044.67,5123.17 2556.99,4817.62 "/>
   <polygon class="fil2" points="3070.31,4582.87 3560.17,4856.51 4050.04,5130.15 4057.99,5691.21 4065.94,6252.26 3584.03,6539.67 3102.12,6827.09 2612.26,6553.45 2122.4,6279.81 2114.44,5718.76 2106.49,5157.7 2588.4,4870.29 "/>
   <g>
    <path class="fil3" d="M2792.55 5896.21c-6.57,14.9 -8.45,7.4 -18.39,5.95 -9.61,-20.26 -5.58,-9.63 2.71,-22.98 6.39,1.72 23.87,-1.52 15.68,17.03zm198.42 868.79l-34.89 -19.49 -0.22 -725.44c0.02,-44.51 0.06,-89.03 0.23,-133.54 0.54,-141.37 -12.62,-54.46 -16.67,-120.68 -3.83,-62.6 18,-16.8 16.83,-121.2 -0.54,-47.78 -7.96,-43.76 -9.49,-53.59 -1.92,-12.36 3.04,-10.49 5.87,-23.39 15.95,-72.88 -52.48,-10.45 -34.4,-152.75l-33.38 7.86c-8.38,-49.24 -39.27,-41.53 -67.69,-18.28 -3.13,33.19 1.84,19.16 5.87,35.35 0.33,1.32 0.93,3.08 1.2,4.38 3.65,17.57 -2.85,11.39 2.73,25.4 10.32,25.93 31.66,7.18 36.07,42.77 4.03,32.54 -21.97,30.05 -30.12,57.13 -13,43.19 18.3,56.39 22.23,62.62l-25.7 25.44 -0.71 1016.78 -36.42 -20.34c1.87,-297.31 2.23,-606.65 -7.42,-632.82 -19.64,10.05 -12.33,35.82 -12.09,62.33 0.81,88.74 2.26,326.25 2.65,561.08l-46.13 -25.77c0.24,-51.35 0.4,-102.59 0.34,-153.65l2.01 -431.5c6.25,-20.74 48.86,-48.1 22.42,-111.67 -16.28,-39.14 -25.88,-7.98 -25.45,-66.8 0.2,-27.19 6.84,-65.14 -9.03,-80.43 -14.37,23.55 -5.3,73.4 -7.68,103.59 -119.44,-9.12 -142.42,162.85 1.05,157.46l-0.08 573.84 -100.67 -56.23 -24.05 -13.44 -1.2 -780.14 -121.13 61.55c-45.3,-8.25 -121.33,-63.33 -173.38,-82.22l-3.88 -390.5 1.17 -300.32 298.61 -178.09 114.35 -68.2c0.06,3.44 0.11,6.87 0.18,10.3 0.97,53.24 14.96,22.47 33.25,65.74 10.51,24.86 10.24,56.94 -6.66,77.02 -8.71,10.35 -24.2,17.23 -28.73,22.94 -4.19,5.28 -6.59,-8.82 -7.18,18.56 -0.64,29.35 -8.13,4.8 36.77,39.83 23.98,18.71 8.53,0.83 21.06,29.05 9.64,-13.44 -0.76,6.42 1.45,-11.48 5.54,-44.88 17.78,-6.32 43.08,-49.63 -15.59,-38.89 -57.53,-19.46 -19.09,-53.45 16.43,17.49 21.56,55.33 32.27,68.09 52.89,-0.38 42.6,-68.58 104.83,-46.26 55.01,19.73 22.46,94.56 22.49,104.92 30.52,0.92 13.83,2.02 31.76,-11.12l21.78 -15.77c-3.51,-35.43 -27.8,-12.54 9.44,-41.65l25.06 26.05c3.99,9.73 -12.01,18.8 19.46,25.93 15.12,-24.9 -1.42,-14.5 -0.8,-38.09l6.33 -20.7c4.54,-10.78 0.72,-4.09 6.24,-13.17 0.13,-0.22 11.29,-12.46 13.67,-15.01l47.94 37.7c17.09,17.26 -10.7,5.89 14.46,14.55l4.43 -42.88c2.79,-5.04 -3.36,-2.05 8.43,-8.26 24.39,-12.86 56.57,12.01 62.18,37.3 0.35,1.6 0.81,6.67 1.01,8.28l0.31 17.49c-3.05,11.06 0.74,-8.19 -4.54,8.92 -9.91,32.14 14.54,4.01 25.42,6.18 11.12,25.9 1.48,11.96 17.75,32.45 8.13,10.24 11.82,14.42 18.74,24.94l43.36 -4.56 -0.49 28.7c-2.94,13.44 -4.13,23.48 -3.06,39.29 20.22,18.75 49.44,32.06 33.36,71.98 -32.62,31.34 -1.94,-12.7 -54.31,19.75l-5.6 -42.07c-4.81,-32.88 -39.38,-36.12 -41.31,6.18 -0.73,15.95 25.17,-4.36 -5.9,24.16l26.01 23.81 -28.29 6.5c14.12,16.29 22.74,2.34 5.43,28.73 -1.9,-0.94 -33.59,-36.95 -63.31,-19.22l-12.07 -3.1 -0.05 -23.09c-5.23,-11.15 -4.02,-9.68 -7.13,-18.09 -11.14,-3.65 -20.86,-7.06 -37.9,-5.24 -9.04,18.22 -12.79,29.76 -3.48,52.46l-12.97 11.59c-21.6,11.93 -37.43,26.06 -23.88,57.35 8.35,14.89 13.1,29.95 16.16,52.97 6.97,77.55 -26.68,119.14 -98.25,123.26l-0.86 1222.77zm-216.41 -930.76c0.34,-0.12 19.88,-20.44 18.72,6.81 -0.64,14.87 -5.79,9.57 -18.93,12.89l0.21 -19.69zm-117.89 -131.78c13.66,-12.58 45.79,2.11 31.96,26.04 -11.64,20.13 -37.97,15.16 -31.96,-26.04zm69.32 -29.41c11.98,20.37 6.72,10.84 -6.36,20.17 -7.16,-9.14 -6.39,0.02 -3.88,-13.52 2.45,-13.21 1.58,-3.56 10.24,-6.65zm54.41 -13.53c12.69,-13.35 -22.03,-8.37 14.06,-13.8 -5.43,15.4 3.8,7.15 -14.06,13.8zm-95.43 -75.09c5.88,14.83 4.14,1.56 4.48,16.24 0.73,31.59 1.58,2.09 -5.55,15.23 -40.84,11.27 -43.57,-40.14 1.07,-31.47zm127.24 -20.65c-9.6,23.91 -22.44,23.99 -23.23,-7.59 25.01,2.1 8.48,-4.91 23.23,7.59zm-58.79 4.79c-0.09,-4.82 -2.83,-6.56 8.32,-1.46 13.22,6.05 -7.93,21.81 -8.32,1.46zm17.39 -94.62c38.1,0.1 39.8,24.13 5.17,30.33 -11.33,-17 -8.02,-6.07 -5.17,-30.33zm-327.05 27.25c-10.27,-5.55 -8.18,-13.77 -7.75,-25.07l22.93 3.1c0.19,12.74 4.56,32.63 -15.18,21.97zm619.25 -28.02c0.99,-20.04 -8.87,-1.41 6.6,-3.53 10.54,-1.44 -7.44,20.51 -6.6,3.53zm-257.69 -37.75l-3.03 16.33c-22.01,-15.63 -0.78,-15.48 3.03,-16.33zm-47.72 12.31c19.4,-8.29 9.26,-9.55 17.01,6.02 -13.77,6.72 -8.66,8.13 -17.01,-6.02zm-152.45 -25.95c3.35,5.58 10.11,4.8 0.79,21.8 -14.59,0.74 -33.43,-13.72 -0.79,-21.8zm141.77 -3.88c-20.1,7.38 -24.96,0.07 -45.57,11.72 -12.88,7.28 -11.64,17.73 -38.21,16.27 -30.22,-1.66 -52.11,-34.52 -37.92,-72.15 22.6,-59.96 108.36,5.08 110.49,7.02 12.71,11.56 13.68,19.79 11.21,37.14zm-172.89 -32.67c12.89,-0.47 29.65,-2.43 22.18,16 -8.42,20.78 -18.94,4.58 -24.26,1.92l2.08 -17.93zm191.56 -22.41c-5.27,24.32 6.04,18.04 -18.06,19.14 1.79,-24.7 -6.56,-12.72 18.06,-19.14zm159.87 -44.58c8.45,18.23 4.14,17.14 2.02,26.8l-24.35 1.14c-7.39,-23.22 -5.15,-37.01 22.33,-27.94zm-94.99 -0.31c7.99,19.36 7.46,1.74 1.86,27.39l-27.46 1.83 1.72 -28.25 19.03 -2.72c0.78,-1.74 3.23,1.19 4.85,1.75zm-73.63 19.46c-6.98,14.26 -8.02,6.67 -20.89,9.3 -7.97,-22.04 -9.85,-33.77 16.52,-28.6 0.29,0.56 13.35,0.94 4.37,19.3zm231.06 -79.15c27.88,-30.77 50.64,13.12 31.62,31.47 -18.68,18.02 -54.05,-6.7 -31.62,-31.47zm-106.6 5.14c-0.81,11.67 -1.12,12.79 -8.8,19.44 -34.84,30.16 -60.24,-65.07 2.77,-41.77 0.77,1.61 7.57,0.28 6.03,22.33zm190.68 -29.12c8.09,2.07 31.84,2.24 17.95,17.45 -16.92,18.53 -15.3,-7.38 -17.95,-17.45zm-167.95 -8.72c24.05,22.82 6.29,31.35 -20.45,24.99 3.76,-22.24 2.63,-18.92 20.45,-24.99zm419.7 10.68c-10.27,-8.71 -6.89,-2.99 -12.11,-17.57 12.76,-12.49 7.95,-6.19 23.01,-3.18 -0.55,16.57 1.44,10.89 -10.91,20.75zm-171.59 13.6c-8.27,-22.41 -8.86,-10.46 -19.88,-32.22 10.5,4.02 7.22,2.98 13.48,6.79 0.74,0.45 2.81,3.93 3.35,2.82 0.52,-1.07 1.95,2.04 2.94,3.04 10.63,-10.83 36.86,-19.51 42.4,3.05 5.69,23.18 -24.56,18.63 -42.29,16.51zm-63.7 -53.57c4.4,7.12 14.83,-11.1 4.09,26.62 -28.65,-0.01 -33.92,-15.53 -4.09,-26.62zm-110.88 22.45c-68.35,-79.94 77.15,-106.1 37.62,-3.12l-37.62 3.12zm-68.3 -50.21c4.59,40.69 -23.79,37.67 -32.69,21.02 -12.1,-22.64 13.46,-27.92 32.69,-21.02zm249.12 -38.03c64.25,26.41 -50.77,47.9 0,0zm-360.15 -39.64c48.24,-19.62 67.59,59.75 27.15,76.41 -49.43,20.36 -85.49,-52.69 -27.15,-76.41zm483.47 28.64c8.91,22.16 -2.35,19.83 -2.5,19.99 -17.28,-12.94 -15.58,-17.35 2.5,-19.99zm-763.43 -25.58c32.8,-33.94 61.21,21.38 35.7,42.16 -20.28,16.52 -67.56,-9.2 -35.7,-42.16zm404.81 32.33c-23.54,-10.72 2.06,19.84 -5.56,-8.85 -8.12,-30.62 -4.58,3.77 5.56,-8.7 17.86,33.76 0.02,17.52 0,17.55zm186.68 -43.08c4.58,17.17 3.79,30.27 -3.86,44.62 -44.63,13.49 -47.1,-13.37 -38.81,-47.34l42.67 2.72zm-708.12 -37.15c9.42,20.35 9,13.44 -6.36,23.43 -16.71,-9.15 -15.57,-4 -6.37,-23.84l12.73 0.42zm744.43 -15.84c25.1,10.76 23.39,20.21 -0.76,28.32 -8.81,-12.71 -6.94,10.6 -5.72,-16.91 1.04,-23.56 -4.66,0.64 6.48,-11.41zm-324.73 -1.97c8.01,4.77 9.71,-6.44 8.87,10.23 -1.06,21.08 1.25,1.09 -8.87,7.95 -13.48,-17.37 -2.51,-13.78 0,-18.18zm-250.4 -59.74c-22.87,5.86 -6.61,6.76 -25.94,-1.03 -9.51,-37.57 33.91,-37.1 25.94,1.03z"/>
    <path class="fil4" d="M3830.84 5807.63c34.64,4.83 32.57,12.96 59.34,23.7l128.5 -63.38 -0.36 -655.52 -234.52 -131 -0.93 790.62c18.9,15.13 39.68,15.63 47.97,35.58z"/>
    <path class="fil5" d="M2268.84 5358.55l13.98 -8.46 5.79 -1.39 1.17 -300.32 -183.3 109.32 2.15 151.94 6.42 4.23c5.28,188.5 3.96,403.72 2.35,615.1l4.97 350.84 43.76 24.44c0.05,-146.01 -1.79,-308.17 -1.73,-354.14 0.22,-162.79 -5.19,-414.23 -0.41,-572.93 0.13,-4.28 0.5,-14.08 1.27,-17.99l7.47 -17.4c24.24,23.66 11.77,255.76 11.71,303.08l-0.06 642.27c0.02,9.11 0.03,18.21 0.03,27.32l59.39 33.18 -0.23 -932.04c-0.04,-39.58 -5.58,-46.52 25.25,-57.05z"/>
    <path class="fil6" d="M3712.72 6120.41c15.83,16.47 -14.48,16.46 -16.97,17.13 1.81,-10.02 -1.31,-36.15 16.97,-17.13zm303.88 161.28l-254.22 151.62c-46.37,21.81 -84.91,39.52 -100.13,46.03l-0.04 13.71 -58.65 34.98 0.73 -489.4 104.58 -53.04 1.01 -111.79c30.9,-27.78 81.13,-44.59 120.96,-66.17 34.64,4.83 32.57,12.96 59.34,23.7 4.35,12.78 -0.25,5.42 6.99,14.87 34.45,-2.96 81.53,-37.58 119.85,-48.35l-0.43 483.83z"/>
    <path class="fil7" d="M2465.87 5821.43c-45.3,-8.25 -121.33,-63.33 -173.38,-82.22l-0.2 635.51 173.09 96.69 0.48 -649.98z"/>
    <path class="fil8" d="M3190.22 5646.6l-39.15 -3.1 0.56 1154.06 36.31 -21.66 2.61 -978.26c3.88,-27.24 -13.48,14.29 6.01,-20.44 24.63,7.26 13.36,-2.95 17.78,15.6 9.93,41.72 -13.47,0.79 -3.54,40.14 10.25,40.59 5.36,123.7 3.85,167.74 24.91,1.25 24.44,-1.03 24.96,24.89l-25.21 1.37 0.83 732.68 39.43 -23.51c3.49,-324.24 1.58,-683.81 -0.94,-1002.25 -0.1,-12.69 -1.25,-32.68 -0.01,-44.54 3.65,-34.92 7.14,-13.42 12.83,-40.01 7.37,-34.43 -18.83,-53.74 -46.58,-38.9 -37.35,19.98 11.48,38.04 -6.68,159.18 -35.43,-18.54 -22.81,-53.66 -23.06,-122.99z"/>
    <path class="fil8" d="M2872.63 5784.78l-2.59 912.67 44.71 24.98 -0.37 -941.48c-21.51,4.3 -31.42,2.6 -41.75,3.84z"/>
    <path class="fil9" d="M3066.47 6344.37l0.59 463.13 20.79 11.62 0.6 -474.74c0.03,-28.31 5.88,-78.87 -6.36,-99.06 -24.41,15.45 -15.69,37.01 -15.63,99.06z"/>
    <path class="fil4" d="M3559.73 5363.2c-116.59,24.09 -73.72,178.32 29.82,154.42 100.41,-23.18 68.7,-174.77 -29.82,-154.42z"/>
    <path class="fil10" d="M3160.46 4735.41c-42.08,21.19 -53.12,58.81 -35.77,97.34 12.18,27.05 50.22,54.99 89.6,35.32 75.54,-37.73 33.84,-176.82 -53.83,-132.66z"/>
    <path class="fil6" d="M3459.05 5619.33c-80.45,40.19 -24.86,138.96 43.59,109.17 66.01,-28.72 26.49,-144.18 -43.59,-109.17z"/>
    <path class="fil11" d="M2746.94 5417.91c2.47,-17.35 1.5,-25.58 -11.21,-37.14 -2.13,-1.94 -87.89,-66.98 -110.49,-7.02 -14.18,37.63 7.71,70.49 37.92,72.15 26.56,1.46 25.33,-8.99 38.21,-16.27 20.61,-11.65 25.47,-4.34 45.57,-11.72z"/>
    <path class="fil12" d="M3295.01 6712.05c0.22,-35.65 0.52,-71.28 0.47,-106.95 -0.07,-48.38 8.91,-224.58 -9.89,-253.66l-5.31 369.39 14.74 -8.79z"/>
    <path class="fil13" d="M3044.5 5765.29c-52.25,31.91 -11.31,96.52 38.31,77.61 51.25,-19.53 20.38,-113.45 -38.31,-77.61z"/>
    <path class="fil14" d="M3433.07 5236.85c-59.15,24.6 -23.53,100.61 28.11,83.02 52.67,-17.94 23.81,-104.61 -28.11,-83.02z"/>
    <path class="fil15" d="M2282.82 5350.1l-13.98 8.46c-3.69,46.09 -5.42,378.23 5.66,397.19 10.22,-19.12 9.28,-355.42 8.32,-405.64z"/>
    <path class="fil16" d="M3387.28 4921.31c9.45,-83.5 -66.49,-79.66 -79.06,-36 -7.19,24.98 3.77,48.8 20,56.13 25.71,11.62 42.28,-6.68 59.06,-20.13z"/>
    <path class="fil17" d="M3127.89 5593.68c12.83,-7.2 42.48,11.05 62.51,17.89l-0.01 -87.53 -35.55 -3.8c-0.06,8.77 0.94,21.71 0.46,29.62 -1.49,24.7 -2.7,23.12 -9.62,30.98 -27.16,-7.46 -16.52,-29.46 -32.16,-35.81 -38.75,-0.18 -41.37,18.1 -32.63,50.21 26.05,8.55 22.81,11.27 46.99,-1.57z"/>
    <path class="fil18" d="M3305.12 5312.19c-4.81,40.99 12.56,79.26 55.66,58.55 47.9,-23.01 12.52,-63.23 3.87,-75.6 -38.23,-4.63 -33.97,-3.34 -59.53,17.04z"/>
    <path class="fil19" d="M2798.26 5090.84c-58.34,23.72 -22.28,96.77 27.15,76.41 40.44,-16.66 21.09,-96.03 -27.15,-76.41z"/>
    <path class="fil20" d="M3418.39 5840.74l-14.25 -49.52c-17.92,6.8 -82.8,-13.27 -66.7,48.78 10.26,39.55 60.54,37.81 80.96,0.74z"/>
    <path class="fil20" d="M3663.17 5910.28c-67.63,-18.23 -79.42,39.36 -51.04,63.08 33.18,27.73 80.75,-2.85 51.04,-63.08z"/>
    <path class="fil21" d="M3211.64 5455.51l3.67 11.7c54.27,16.93 24.72,10.41 57.12,-4.63 11.7,7.42 29.09,26.19 29.65,-0.07 0.27,-12.97 -7.07,-44.36 -13.03,-56.42 -18.43,3.4 -17.57,10.58 -37.68,20.02 -30.91,14.51 -31.53,-1.16 -39.72,29.4z"/>
    <path class="fil4" d="M3585.13 4919.94c-35.21,27.79 7.24,85.03 43.65,57.43 34.35,-26.04 -5.96,-87.18 -43.65,-57.43z"/>
    <path class="fil22" d="M2977.58 5218.72l37.62 -3.12c39.54,-102.98 -105.97,-76.83 -37.62,3.12z"/>
    <path class="fil23" d="M3073.92 5366c8.35,14.89 13.1,29.95 16.16,52.97 38.67,-7.63 46.6,-9.21 47.4,-48.23 -15.05,-16.14 -24.83,-24.72 -53.26,-22.25 -15.7,15.94 -2.83,2.65 -10.3,17.51z"/>
    <path class="fil24" d="M3546.31 5036.19c9.22,-16.72 7.02,-19.07 7.15,-46.24 0.15,-31.78 3.61,-98.8 -0.81,-137.63l-13.3 -7.43c-4.85,24.2 -0.47,58.5 -0.31,81.41 0.13,19.09 -0.09,38.16 -0.17,57.25l1.15 38.03c5.64,26.67 -0.81,2.26 6.3,14.61z"/>
    <path class="fil4" d="M3443.44 5549.49l26.19 26.38c17.99,9.83 29.84,4.54 45.12,-0.85 2.67,-31.79 -8.91,-38.77 -25.67,-56.22 -20.02,7.01 -32.55,15.31 -45.64,30.7z"/>
    <path class="fil25" d="M3374.62 5656.38c24.52,-23.07 22.35,-28.98 7.23,-55.94 -65.45,-8.51 -65.76,60.85 -7.23,55.94z"/>
    <path class="fil26" d="M2518.31 5093.91c-31.86,32.96 15.43,58.68 35.7,42.16 25.51,-20.78 -2.9,-76.1 -35.7,-42.16z"/>
    <path class="fil5" d="M3151.07 5643.5l39.15 3.1 0.18 -35.03c-20.03,-6.85 -49.68,-25.09 -62.51,-17.89l1.04 10.07c3.8,29.59 6.21,14.04 22.14,39.75z"/>
    <path class="fil14" d="M2965.47 4647.81l36.58 2.57c5.19,-12.59 8.81,-23.44 8.79,-32.05l-46.2 27.55 0.82 1.92z"/>
    <path class="fil27" d="M2879.02 5682c-12.41,6.37 -22.56,13.63 -12.64,37.39 5.76,13.8 22.81,21.21 38.71,9.56 22.26,-16.32 6.72,-63.77 -26.06,-46.95z"/>
    <path class="fil28" d="M3110.78 5297.06c15.22,8.12 -6.83,5.05 22.22,4l26.29 -33.14c-5.23,-11.15 -4.02,-9.68 -7.13,-18.09 -11.14,-3.65 -20.86,-7.06 -37.9,-5.24 -9.04,18.22 -12.79,29.76 -3.48,52.46z"/>
    <path class="fil19" d="M3067.13 5080.44c-8.29,33.97 -5.81,60.83 38.81,47.34 7.65,-14.35 8.44,-27.46 3.86,-44.62l-42.67 -2.72z"/>
    <path class="fil29" d="M3735.13 4983.53c-14.38,-40.5 -47.97,-27.11 -48.83,0.12 -0.92,29.41 34.94,42.99 48.83,-0.12z"/>
    <path class="fil30" d="M2875.28 5241.06c-63.01,-23.3 -37.61,71.93 -2.77,41.77 7.68,-6.65 7.99,-7.77 8.8,-19.44 1.54,-22.05 -5.27,-20.73 -6.03,-22.33z"/>
    <path class="fil26" d="M2987.92 5258.25c-22.44,24.77 12.93,49.49 31.62,31.47 19.03,-18.35 -3.74,-62.25 -31.62,-31.47z"/>
    <path class="fil31" d="M3016.9 6104.97c38.92,11.88 43.13,-26.92 29.86,-37.01 -10.77,-8.18 -25.51,-8.23 -34.84,2.69 -11.5,13.46 0.49,28.16 4.99,34.32z"/>
    <path class="fil32" d="M2964.69 4964.45c8.73,12.61 18.64,15.96 33.44,22.89l16.68 -29.35c-2.44,-3.46 -6.36,-8.9 -9.34,-12.28 -8.47,-9.62 -5.34,-6.09 -12.41,-12.26 -27.84,20.63 -14.5,0.63 -28.38,30.99z"/>
    <path class="fil33" d="M3404.14 5791.22l14.25 49.52 17.7 0.28 0.71 -60.47c-23.7,-0.73 -18.57,-0.78 -32.66,10.67z"/>
    <path class="fil34" d="M3110.78 5297.06l-12.97 11.59c53.29,-15.99 5.24,30.29 63.32,10.04 0.94,-1.39 2.56,-5.02 2.89,-4.12l7.4 -20.44 -12.07 -3.1 -0.05 -23.09 -26.29 33.14c-29.05,1.05 -7,4.12 -22.22,-4z"/>
    <path class="fil8" d="M3164.77 5376.66c15.45,-2.42 26.63,-4.67 25.43,-23.82 -1.41,-22.56 -18.16,-19.11 -32.43,-18.65 -12.67,19.98 -15.5,28.44 7,42.47z"/>
    <path class="fil35" d="M3152.16 5249.84c17.73,2.12 47.98,6.67 42.29,-16.51 -5.54,-22.56 -31.76,-13.88 -42.4,-3.05 -0.99,-1.01 -2.41,-4.11 -2.94,-3.04 -0.54,1.11 -2.61,-2.37 -3.35,-2.82 -6.26,-3.81 -2.99,-2.77 -13.48,-6.79 11.02,21.76 11.6,9.81 19.88,32.22z"/>
    <path class="fil36" d="M3398.98 5051.03l12.81 15.64c0.98,0.98 2.46,2.21 3.48,3.18 21,20 -0.03,12.13 29.83,15.08l4.66 -41.96 -50.79 8.05z"/>
    <path class="fil37" d="M3234.33 5040.47c36.29,-6.83 35.17,-37.07 6.75,-49.18 -22.97,18.09 -19,21.15 -6.75,49.18z"/>
    <path class="fil22" d="M2656.67 5702.46c-6.01,41.2 20.32,46.17 31.96,26.04 13.84,-23.93 -18.29,-38.62 -31.96,-26.04z"/>
    <polygon class="fil9" points="3215.3,5467.21 3211.64,5455.51 3177.62,5452.1 3170.8,5484.84 3202.9,5486.37 "/>
    <path class="fil9" d="M3309.76 5713.81l0.55 -22.66c-50.05,-27.07 -54.39,52.02 -0.55,22.66z"/>
    <path class="fil9" d="M2874.73 5599.25c18.41,15.28 48.77,28.08 44.17,-13.85 -23.26,-10.58 -36.74,-1.8 -44.17,13.85z"/>
    <path class="fil38" d="M3327.49 5069.8c2.82,-10.36 4.75,-3.19 2.87,-16.22 -3.54,-24.59 0.45,-3.57 -5.67,-13.67 -36.82,-16.83 -47.53,45.41 2.8,29.89z"/>
    <path class="fil39" d="M2683.91 5615.89c7.12,-13.15 6.28,16.36 5.55,-15.23 -0.34,-14.67 1.4,-1.41 -4.48,-16.24 -44.64,-8.67 -41.91,42.74 -1.07,31.47z"/>
    <path class="fil40" d="M2909.28 5168.52c-19.23,-6.9 -44.78,-1.61 -32.69,21.02 8.9,16.65 37.28,19.67 32.69,-21.02z"/>
    <path class="fil41" d="M3462.67 6075.74l13.79 -9.89c28.49,-30.18 11.29,-29.73 -0.1,-37.76 -19.38,13.21 -8.89,-5.95 -15.27,22.76 -1.94,8.75 -0.44,19.46 1.58,24.88z"/>
    <path class="fil42" d="M3022.61 4905l1.75 26.74c25.99,3.96 8.88,5.75 28.42,-3.01 0.54,-1.57 1.72,-5.63 1.68,-4.69 -0.01,0.25 0.57,-39.98 -31.85,-19.04z"/>
    <path class="fil43" d="M3178.19 4643.13c0.98,4.74 6.06,8.66 17.66,9.86l-17.66 -9.86z"/>
    <path class="fil9" d="M3722 5653.64l-27.1 -2.23c-8.73,46.97 38.62,46.19 27.1,2.23z"/>
    <path class="fil44" d="M3334.17 5109.3c-10.37,34.58 36.6,37.74 28.32,-5.76 -7.45,-0.77 -6.86,-2.32 -13.17,-0.76 -24.18,5.99 -5.15,0.33 -15.15,6.52z"/>
    <path class="fil21" d="M2530.43 5839.78c28.16,-2.62 27.38,-13.48 16.44,-34.18 -29.84,2.53 -28.88,13.7 -16.44,34.18z"/>
    <path class="fil35" d="M2903.15 5346.19l24.35 -1.14c2.12,-9.66 6.42,-8.57 -2.02,-26.8 -27.47,-9.06 -29.72,4.72 -22.33,27.94z"/>
    <path class="fil35" d="M2806.6 5318.91l-1.72 28.25 27.46 -1.83c5.6,-25.65 6.13,-8.03 -1.86,-27.39 -1.62,-0.56 -4.07,-3.49 -4.85,-1.75l-19.03 2.72z"/>
    <path class="fil45" d="M3119.27 5504.59c7.59,6.22 -0.49,5.68 13.98,8.32 12.84,2.34 7.07,0.6 18.71,-0.58 -0.9,-24.63 0.67,-22.82 -18.45,-32.37l-14.25 24.64z"/>
    <path class="fil22" d="M2545.04 4967.43c19.32,7.78 3.07,6.89 25.94,1.03 7.97,-38.12 -35.45,-38.6 -25.94,-1.03z"/>
    <path class="fil46" d="M3476.02 4940.28c8.21,-11.93 8.2,14.9 6.27,-13.76 -1.46,-21.67 1.94,-3.69 -8.5,-16.18 -31.61,4.18 -25.56,38.43 2.24,29.93z"/>
    <path class="fil33" d="M3699.84 5441.38c6.83,13.76 5.89,14.48 22.54,16.58 24.02,-34.89 -16.58,-44.3 -22.54,-16.58z"/>
    <path class="fil19" d="M2775.99 5504.28c34.63,-6.21 32.93,-30.23 -5.17,-30.33 -2.85,24.26 -6.16,13.33 5.17,30.33z"/>
    <path class="fil47" d="M3538.44 5111.25c9.38,5.97 9.31,7.71 23.4,1.64l2.82 -9.16c-4.24,-30.94 -37.53,-22.76 -26.23,7.52z"/>
    <path class="fil39" d="M3277.63 4922.14c-1.27,4.64 -21.18,-0.88 1.6,28.89 21.46,-3.2 29.98,-4.01 12.72,-29.78l-14.33 0.88z"/>
    <path class="fil48" d="M2735.97 5346.7c12.87,-2.63 13.91,4.96 20.89,-9.3 8.98,-18.36 -4.07,-18.74 -4.37,-19.3 -26.37,-5.17 -24.49,6.57 -16.52,28.6z"/>
    <path class="fil36" d="M3037.36 5707.07c11.62,-16.73 11.06,-8.18 3.31,-31.79 -16.86,3.73 -19.07,-3.83 -21.63,14.54 -2.25,16.17 7.75,14.71 18.32,17.26z"/>
    <path class="fil49" d="M3158.41 5130.48c-50.77,47.9 64.25,26.41 0,0z"/>
    <path class="fil38" d="M3227.91 5384.84c29.66,-0.05 27.68,1.09 22.04,-27.8 -23.24,4.44 -24.55,-4.04 -22.04,27.8z"/>
    <path class="fil50" d="M2883.6 5250.55c26.74,6.36 44.5,-2.17 20.45,-24.99 -17.82,6.07 -16.69,2.75 -20.45,24.99z"/>
    <path class="fil39" d="M3214.4 6026.95l25.21 -1.37c-0.51,-25.92 -0.05,-23.64 -24.96,-24.89l-0.25 26.26z"/>
    <path class="fil38" d="M2838.51 4934.63c63.14,-2.38 -1.8,-60.74 0,0z"/>
    <path class="fil51" d="M3092.55 5222.89c10.74,-37.72 0.31,-19.5 -4.09,-26.62 -29.83,11.09 -24.55,26.61 4.09,26.62z"/>
    <path class="fil52" d="M2571.97 5403.16c5.32,2.66 15.84,18.86 24.26,-1.92 7.47,-18.44 -9.29,-16.47 -22.18,-16l-2.08 17.93z"/>
    <path class="fil34" d="M2458.95 5479.23l-22.93 -3.1c-0.43,11.3 -2.51,19.52 7.75,25.07 19.74,10.67 15.37,-9.23 15.18,-21.97z"/>
    <path class="fil36" d="M3690.44 5588.57c7.9,4.27 -12.17,11.57 13.69,4.3 14.05,-3.95 3.95,1.42 11.22,-11.59 -14.3,-25.34 -31.56,-12.91 -24.92,7.28z"/>
    <path class="fil53" d="M2701.12 5963.63c1.51,-58.31 -60.6,-1.39 0,0z"/>
    <path class="fil54" d="M3119.27 5504.59l14.25 -24.64 -25.35 -6.56c-0.7,10.66 -5.55,1.87 0.14,17.87 9.52,26.77 2.26,6.55 10.97,13.33z"/>
    <path class="fil45" d="M3694.7 5373.58c9.21,-27.15 5.54,-14.02 -4.19,-24.57 -26,7.79 -24.85,26.8 4.19,24.57z"/>
    <path class="fil51" d="M2774.16 5902.16c9.94,1.45 11.82,8.94 18.39,-5.95 8.19,-18.56 -9.29,-15.31 -15.68,-17.03 -8.29,13.36 -12.32,2.72 -2.71,22.98z"/>
    <path class="fil55" d="M3145.35 5058.49c24.15,-8.11 25.85,-17.56 0.76,-28.32 -11.14,12.05 -5.44,-12.15 -6.48,11.41 -1.22,27.51 -3.09,4.2 5.72,16.91z"/>
    <path class="fil56" d="M3495.44 4989.23l16.64 -1.23 -0.84 -24.37c-23.36,3.91 -29.74,1.77 -15.81,25.6z"/>
    <path class="fil57" d="M3279.07 6318.41c15.68,0.14 23.82,3.54 23.56,-12 -0.23,-13.42 -8.21,-10.82 -21.09,-10.38l-2.47 22.38z"/>
    <path class="fil58" d="M3291.06 5969.19l22.51 8.77c4.21,-35.53 -19.45,-39.51 -22.51,-8.77z"/>
    <path class="fil59" d="M3120.17 4932.66l32.96 0 -1.68 -17.02c-25.51,1.83 -26.98,0.25 -31.28,17.02z"/>
    <path class="fil60" d="M3198.44 5337.98l19.62 1.06c0,-0.03 21.15,-12.71 -14.47,-23.08 -5.88,9.8 -6.82,5.55 -5.14,22.02z"/>
    <path class="fil61" d="M3241.34 5566.44c22.68,-9.02 24.31,-19.19 0.15,-27.67 -10.41,17.67 -11.22,10.03 -0.15,27.67z"/>
    <path class="fil57" d="M3283.53 6185.4c17.1,10.58 -23.46,6.32 9.37,4.96 11.73,-0.48 7.1,-0.71 13.44,-4.23 4.98,-19.86 -18.58,-34.29 -22.81,-0.73z"/>
    <path class="fil62" d="M3514.52 6140.02c16.39,-20.52 14.69,-15.64 -6.36,-24.89 -3.12,4.09 -11.11,-7 -6.88,13.22 4.02,19.23 -1.43,6.58 13.24,11.68z"/>
    <path class="fil46" d="M3424.18 6547.62c23.51,-4.52 23.33,-0.9 14.78,-24.5 -22.2,5.56 -21.45,1.55 -14.78,24.5z"/>
    <path class="fil63" d="M3557.49 5767.29c0.08,-27.48 2.4,-21.08 -19.89,-30.2 2.54,32.35 -4.5,20.23 19.89,30.2z"/>
    <path class="fil64" d="M2395.32 5069.43c15.36,-9.99 15.78,-3.08 6.36,-23.43l-12.73 -0.42c-9.2,19.84 -10.33,14.69 6.37,23.84z"/>
    <path class="fil55" d="M2774.56 5834.24l-0.21 19.69c13.14,-3.32 18.29,1.98 18.93,-12.89 1.16,-27.25 -18.38,-6.92 -18.72,-6.81z"/>
    <path class="fil44" d="M3264.72 5306.94c-6,22.91 14.57,32.67 21.99,0.9 -13.21,-7.01 14.74,-4.51 -8.95,-4.06 -9.5,0.18 -8.72,1.26 -13.03,3.16z"/>
    <path class="fil32" d="M3018.51 5754.2c17.92,-9.67 21.82,-4.01 6.36,-25.06 -9.65,3.92 -7.07,-7.3 -11.49,7.45 -8.09,26.99 0.96,12.42 5.13,17.61z"/>
    <path class="fil64" d="M3579.31 5253.68c11.5,0.58 15.76,4.11 20.4,-6.45 7.31,-16.64 -7.12,-13.68 -17.52,-16.44l-2.88 22.9z"/>
    <path class="fil33" d="M3214.4 6026.95l0.25 -26.26c-30.69,4.89 -13.23,2.72 -20.24,13.02 10.44,15.99 -7.02,6.99 19.99,13.25z"/>
    <path class="fil65" d="M3652.55 5188.45c-52.35,-2.51 3.57,52.69 0,0z"/>
    <path class="fil51" d="M2812.22 5563.78c-14.75,-12.5 1.78,-5.49 -23.23,-7.59 0.79,31.58 13.63,31.5 23.23,7.59z"/>
    <path class="fil66" d="M3424.58 5507.13c19.73,3.25 32.54,-15.69 0.91,-22.77 -8.69,16.17 -4.92,-23.96 -4.23,9.2 0.22,10.66 -0.41,7.74 3.32,13.57z"/>
    <path class="fil67" d="M3616.26 5830.29c7.58,-10.97 7.97,12.9 6.16,-13.64 -1.58,-23.19 5.38,1.79 -5.66,-10.82 -25.19,9.97 -22.34,15.18 -0.5,24.46z"/>
    <path class="fil68" d="M3311.64 5218.67c5.21,14.58 1.84,8.86 12.11,17.57 12.35,-9.86 10.36,-4.18 10.91,-20.75 -15.06,-3.01 -10.26,-9.31 -23.01,3.18z"/>
    <path class="fil69" d="M3045.95 5644.87c9.09,15.39 -0.71,6.84 18.65,12.37l2.89 -19.94c-8.18,-1.74 -17.87,-12.62 -21.53,7.57z"/>
    <path class="fil70" d="M3107.54 5732.34c29.54,-29.5 1.7,-18.9 0,-21.33 -0.32,0.45 -32.09,-4.72 0,21.33z"/>
    <path class="fil69" d="M3167.33 5412.25l20.58 -0.59c-0.9,-14.91 7.47,-10.08 -15.86,-19.19 -7.77,10.35 -11.99,-9.09 -4.72,19.78z"/>
    <path class="fil46" d="M3431.85 6343.6c15.05,-18.63 15.88,-15.71 -6.36,-23.75 -11.34,17.64 -13.36,15.01 6.36,23.75z"/>
    <path class="fil61" d="M3413.12 5899.24c8.89,20.58 14.06,24.26 22.94,0 -20.27,-17.52 -9.03,-10.78 -22.94,0z"/>
    <path class="fil36" d="M3663.21 5601.92c-1.13,-10.35 3.62,-37.98 -16.42,-17.43 -14.05,14.41 8.7,15.79 16.42,17.43z"/>
    <path class="fil71" d="M3695.75 6137.55c2.49,-0.67 32.8,-0.67 16.97,-17.13 -18.28,-19.02 -15.16,7.11 -16.97,17.13z"/>
    <path class="fil72" d="M2605.96 5443.58c9.32,-16.99 2.55,-16.22 -0.79,-21.8 -32.64,8.08 -13.8,22.54 0.79,21.8z"/>
    <path class="fil73" d="M3465.73 5130.81c11.65,2.41 12.68,11.07 19.12,-4.15 6.28,-14.86 -7.26,-13.19 -15.39,-15.46l-3.73 19.61z"/>
    <path class="fil49" d="M3072 5234.28c2.65,10.08 1.03,35.98 17.95,17.45 13.9,-15.22 -9.85,-15.38 -17.95,-17.45z"/>
    <path class="fil64" d="M3317.33 4754.55c9.45,-1.4 7.89,6.21 14.97,-4.48 13.2,-19.91 -1.35,-14.92 -2.2,-16.65 -22.41,10.06 -10.12,-9.24 -12.77,21.13z"/>
    <path class="fil61" d="M2878.25 5479.54c17.55,7.83 18.43,3.45 25.15,-12.38 -41.58,-3.23 -19.37,6.65 -25.15,12.38z"/>
    <path class="fil74" d="M3352.28 5556.96c16.98,-6.93 9.54,7.65 14.07,-9.08 6.72,-24.81 1.99,-2.43 -4.45,-13.54 -8.43,5.3 -18.21,-7.16 -9.62,22.62z"/>
    <path class="fil53" d="M3601.26 5691.71c7.65,-1.83 31.43,-0.97 16.16,-16.41 -16.88,-17.07 -14.61,8.01 -16.16,16.41z"/>
    <path class="fil36" d="M3686.21 5826.48c-3.81,6.76 -15.41,-8.57 -4.14,13.93 2.25,4.5 -5.71,8.37 8.92,4.47 27.74,-7.41 -0.05,-15.7 -4.78,-18.4z"/>
    <path class="fil46" d="M3355.54 5750.63c13.51,-6.77 20.76,2.9 6.36,-20.74 -14.93,5.17 -25.9,2.28 -6.36,20.74z"/>
    <path class="fil44" d="M3551.44 5877.43c12.74,-15.84 14.07,-12.44 -5.12,-22.23 -11.04,16.9 -14.58,13.92 5.12,22.23z"/>
    <path class="fil64" d="M3054.37 6005.06c-4.68,23.62 -7.83,13.08 16.8,16.52 -3.93,-24.49 6.44,-21.2 -16.8,-16.52z"/>
    <path class="fil75" d="M3330.78 5905.05l0.25 -23.19c-8.85,2.74 -16.63,2.82 -16.58,11.32 0.1,15.62 4.66,8.31 16.33,11.87z"/>
    <path class="fil36" d="M3396.88 4767.32c1.62,1.22 -7.1,27.17 13.86,5.72l-13.28 -7.42c-0.05,0.84 -0.2,1.47 -0.58,1.7z"/>
    <path class="fil57" d="M3705.29 5168.68c14.11,-5.22 9.4,10.67 12.06,-8.23 2.31,-16.42 0.58,-4.61 -5.7,-13.91 -13.35,8.87 -17.91,4.62 -6.36,22.14z"/>
    <path class="fil76" d="M2890.6 5543.13c0.55,0.28 24.31,22.75 16.8,-5.01 -7.48,-27.64 -14.57,3.28 -16.8,5.01z"/>
    <path class="fil77" d="M3304.67 5776.02c21.07,-27.54 1.89,-16.69 0,-20.45 -1.04,1.34 -28.83,0.62 0,20.45z"/>
    <path class="fil78" d="M3094.82 6164.06l4.6 -9.91c-1.05,-13.75 0.91,-4.05 -4.6,-12.23 -21.32,9.54 -22.76,10.75 0,22.15z"/>
    <path class="fil41" d="M3542.33 6013.7c9.71,18.43 10.07,18.25 20.78,0 -14.09,-13.58 -4.63,-15.53 -20.78,0z"/>
    <path class="fil70" d="M3559.03 5288.24c10.32,-3.86 8.39,12.28 11.46,-7.75 2.38,-15.5 0.57,-4.61 -5.1,-13.98 -11.25,9.07 -17.69,5.66 -6.36,21.72z"/>
    <path class="fil63" d="M2747.55 5381.97c24.1,-1.1 12.79,5.18 18.06,-19.14 -24.61,6.42 -16.26,-5.55 -18.06,19.14z"/>
    <path class="fil70" d="M3336.46 4987.02c11.78,-17.62 5.57,-15.32 0,-22.57 -17.35,10.7 -21.19,9.42 0,22.57z"/>
    <path class="fil54" d="M3527.24 5073.09c1,-1.43 3.06,-5.16 3.09,-4.22 0.01,0.18 6.45,-1.65 -3.09,-20.06 -12.34,10.5 -24.29,11 0,24.28z"/>
    <path class="fil70" d="M3037.59 5595.27c2.57,-3.98 13.74,5.87 4.95,-12.68 -6.37,-13.45 3.79,-2.03 -11.31,-7.52 -6.76,14.65 -9.98,11.75 6.36,20.2z"/>
    <path class="fil74" d="M3492.36 5365.98c2.62,-27.79 0.14,-17.03 -14.78,-18.95 0.29,23.66 -6.36,12.35 14.78,18.95z"/>
    <path class="fil24" d="M2847.47 5835.65c34.62,24.42 20.14,1.92 23.8,0 -1.89,-1.36 -4.53,-6.47 -5.59,-4.18 -3.11,6.69 0.12,-13.32 -18.2,4.18z"/>
    <path class="fil75" d="M3297.54 5518.04c-2.74,11.35 -8.19,6.85 11.53,16 7.89,-11.87 6.55,-1.66 3.94,-17.41l-11.72 -1.51c-0.65,0.22 -2.38,2.13 -3.75,2.92z"/>
    <path class="fil73" d="M3425.49 4906.4c8.11,-16.15 7.65,-10.72 -6.36,-20.67 -3.51,6.34 -14.4,-9.14 -4.29,13.11 5.47,12.02 -2.73,3.55 10.65,7.55z"/>
    <path class="fil65" d="M3470.01 6213.95c3.11,-7.42 12.89,8.5 3.07,-12.96 -5.1,-11.14 2.36,-1.88 -9.43,-6.82 -13.26,20.38 -10.05,12.13 6.36,19.78z"/>
    <path class="fil53" d="M2922.33 4894.91c19.32,-3.83 22.52,1.36 13.51,-19.04 -19.78,6.67 -8.77,-12.19 -13.51,19.04z"/>
    <path class="fil70" d="M3597.19 5599.34c17.76,-12.69 15.45,-14.44 -8.32,-19.98 2.1,22.29 -4.78,8.68 8.32,19.98z"/>
    <path class="fil48" d="M2719.63 5693.21c13.08,-9.33 18.35,0.2 6.36,-20.17 -8.66,3.08 -7.79,-6.57 -10.24,6.65 -2.51,13.55 -3.28,4.38 3.88,13.52z"/>
    <path class="fil79" d="M3279.23 5139.48c0.15,-0.16 11.42,2.17 2.5,-19.99 -18.08,2.64 -19.79,7.05 -2.5,19.99z"/>
    <path class="fil80" d="M3321.02 6128.91c15.35,5.98 11.9,2.71 18.46,-7.1 -9.76,-5.3 11.79,-13.59 -13.47,-4.22 -8.91,3.31 -7.4,2.71 -4.99,11.32z"/>
    <path class="fil65" d="M3509.51 5211.65c5.06,-19.02 6.6,-10.13 -7.71,-19.63 -2.07,3.75 -13.67,-6.06 -3.77,12.02 5.76,10.52 -3.42,3.06 11.48,7.61z"/>
    <path class="fil36" d="M2834.1 4780.49c15.11,-8.03 14.65,-3.08 6.36,-19.04 -14.37,6 -21.33,2 -6.36,19.04z"/>
    <path class="fil44" d="M3355.08 5416.43c20.62,-4.28 17.53,3.71 15.3,-15.05 -19.29,-3.14 -11.08,-6.57 -15.3,15.05z"/>
    <path class="fil48" d="M2821.38 5046.38c10.12,-6.85 7.81,13.13 8.87,-7.95 0.84,-16.67 -0.86,-5.47 -8.87,-10.23 -2.51,4.41 -13.48,0.81 0,18.18z"/>
    <path class="fil63" d="M2757.62 5447.74c8.35,14.15 3.25,12.73 17.01,6.02 -7.75,-15.57 2.39,-14.31 -17.01,-6.02z"/>
    <path class="fil64" d="M3342.82 6339.6c14.51,-16.94 9.36,19.26 6.1,-8.28 -1.85,-15.66 3.54,-1.2 -6.1,-10.57 -15.43,18.59 -7.9,11.12 0,18.85z"/>
    <path class="fil54" d="M3706.41 5276.05c29.07,25.55 10.34,3.88 17.31,0 -1.72,-1.04 -4.15,-5.66 -4.9,-3.53l-8.68 -0c-0.75,0.25 -2.31,2.57 -3.73,3.54z"/>
    <path class="fil81" d="M2783.31 4869.07c0.12,8.05 13.93,15.57 9.79,0.33 -3.14,-11.56 -10.01,-15.41 -9.79,-0.33z"/>
    <path class="fil55" d="M2923.12 5126.24c0.02,-0.02 17.86,16.22 0,-17.55 -10.14,12.47 -13.68,-21.91 -5.56,8.7 7.61,28.69 -17.98,-1.87 5.56,8.85z"/>
    <path class="fil61" d="M3711.65 5771.67c10.31,-12.06 7.91,18.46 5.14,-7.1 -1.48,-13.62 2.5,-1.43 -5.14,-10.05 -9.16,10.87 -13.76,5.43 0,17.15z"/>
    <path class="fil77" d="M3380.98 6220.92c18.19,-22.96 2.59,-7.65 0,-14.13 -3.39,5.6 -22.4,-12.21 0,14.13z"/>
    <path class="fil72" d="M2753.43 5568.57c0.38,20.34 21.53,4.59 8.32,-1.46 -11.15,-5.1 -8.41,-3.36 -8.32,1.46z"/>
    <path class="fil79" d="M2802.3 5451.76l3.03 -16.33c-3.81,0.86 -25.05,0.71 -3.03,16.33z"/>
    <path class="fil70" d="M3056.66 4766.6c6.82,-12.12 10.3,1.51 0,-16.77 -8.81,8.84 -8.31,-18.55 -5.41,6.5 1.55,13.4 -6.26,2.02 5.41,10.27z"/>
    <path class="fil82" d="M2780.41 5659.51c17.85,-6.65 8.63,1.6 14.06,-13.8 -36.09,5.43 -1.36,0.45 -14.06,13.8z"/>
    <path class="fil59" d="M3293.68 5288.77c-0.24,21.19 23.09,1.41 7.01,-1.08 -5.98,-0.92 -6.93,-6.25 -7.01,1.08z"/>
    <path class="fil83" d="M3090.33 4830.91c-0.58,20.17 21.13,-2.9 6.63,-2.63 -9.34,0.18 -6.31,-8.83 -6.63,2.63z"/>
    <path class="fil84" d="M3063.03 5473.18c-0.84,16.98 17.14,-4.97 6.6,-3.53 -15.46,2.12 -5.61,-16.51 -6.6,3.53z"/>
    <path class="fil33" d="M2790.07 4951.74c26.01,17.86 9.94,2.84 16.07,0l-16.07 0z"/>
    <path class="fil77" d="M3419.13 5602.24c6.5,-10.58 4.12,-8.07 0,-16.81 -10.98,13.87 -14.14,-24.38 -5.37,8.35 8.27,30.86 -15.52,-3.76 5.37,8.47z"/>
    <path class="fil70" d="M3692.57 5514.06c1.12,-1.66 3.7,-5.93 3.59,-4.81 -0.1,0.96 1.68,-4.02 1.49,-4.96l-10.69 -0.05c0.22,0.93 1.36,4.05 1.64,4.97 0.34,1.11 2.29,3.61 3.97,4.85z"/>
   </g>
   <g>
    <polygon class="fil85" points="2455.76,6213.36 2455.76,4948.33 2572.77,4948.33 3296.23,5626.4 3296.23,5194.34 3119.88,5194.6 3507.12,4864.42 3876.35,5197.05 3708.22,5195 3708.22,6467.47 3594.04,6467.47 2867.75,5789.07 2867.75,6215.68 3025.9,6216.43 2652.62,6543.44 2301.39,6208.42 "/>
    <polygon class="fil86" points="2463.03,6276.16 2518.31,6277.93 2518.31,5010.88 2548.04,5010.88 3358.78,5770.74 3358.78,5131.69 3289.94,5131.8 3505.98,4947.58 3711.24,5132.49 3645.68,5131.69 3645.68,6404.92 3618.7,6404.92 2805.21,5645.07 2805.21,6277.93 2860.48,6278.19 2654.42,6458.72 "/>
   </g>
  </g>
  <path class="fil87" d="M975.88 821.65l0 463.4 -468.25 -360.55 -130.07 -99.72 0 725.27 130.07 0 0 -460.27 468.25 360.55 130.07 99.72 0 -727.35 -130.07 -1.04zm430.79 130.07l531.73 0 0 -130.07 -531.73 0c-108.22,0 -195.63,88.45 -195.63,196.67l0 335.06c0,108.22 87.41,196.67 195.63,196.67l531.73 0 0 -130.07 -531.73 0c-36.42,0 -66.6,-30.18 -66.6,-66.6l0 -137.35 468.25 0 0 -130.07 -468.25 0 0 -67.63c0,-36.42 30.18,-66.6 66.6,-66.6zm609.77 601.44l2.08 -2.08 -2.08 0 0 2.08zm728.39 -2.08l-1.04 0 1.04 2.08 0 -2.08zm0 -729.43l-163.37 0 -199.79 259.44 -199.79 -259.44 -164.41 0 281.99 365.76 -279.91 363.68 164.41 0 198.75 -257.37 198.75 257.37 164.41 0 -280.95 -363.68 281.99 -365.76 -2.08 0zm325.7 0c-200.83,0 -364.2,163.37 -364.2,364.19 0,200.83 163.37,364.2 364.2,364.2 200.83,0 364.19,-163.37 364.19,-364.2 0,-200.83 -163.37,-364.19 -364.19,-364.19zm0 598.32c-129.03,0 -234.13,-105.1 -234.13,-234.13 0,-129.03 105.1,-234.12 234.13,-234.12 129.03,0 234.12,105.1 234.12,234.12 0,129.03 -105.1,234.13 -234.12,234.13zm807.48 -598.32l-364.2 0 0 728.39 364.2 0c99.89,0 190.42,-40.58 255.98,-107.18 7.28,-7.29 14.57,-14.57 20.81,-21.85 54.11,-63.48 86.37,-145.68 86.37,-235.17 0,-201.87 -163.37,-364.19 -364.19,-364.19l1.04 0zm-1.04 599.36l-234.13 0 0 -469.29 234.13 0c129.03,0 234.12,105.27 234.12,234.65 0,129.37 -105.1,234.65 -234.12,234.65zm1067.61 -599.36l0 364.19c0,129.03 -105.1,234.13 -234.12,234.13 -129.03,0 -234.13,-105.1 -234.13,-234.13l0 -364.19 -130.07 0 0 364.19c0,200.83 163.37,364.2 364.2,364.2 200.83,0 364.19,-163.37 364.19,-364.2l0 -364.19 -130.07 0zm922.98 200.83l0 -4.16c0,-108.22 -88.45,-196.67 -196.67,-196.67l-295.52 0c-108.22,0 -195.63,88.45 -195.63,196.67l0 4.16c0,41.62 12.49,80.12 34.34,111.34 7.28,11.45 15.61,21.85 24.97,31.22 35.38,34.34 83.24,55.15 136.31,55.15l262.22 0c55.15,0 100.93,44.74 100.93,99.89 0,55.15 -45.79,99.89 -100.93,99.89l-227.89 0c-55.15,0 -99.89,-44.74 -99.89,-99.89l-130.07 0c0,126.95 103.02,229.96 229.96,229.96l227.89 0c126.95,0 229.96,-103.02 229.96,-229.96 0,-55.15 -19.77,-106.14 -52.03,-145.68 -3.12,-3.12 -5.2,-6.24 -8.33,-9.37 -41.62,-45.78 -101.97,-74.92 -169.61,-74.92l-262.22 0c-36.42,0 -66.6,-30.18 -66.6,-66.59l0 -4.16c0,-36.42 30.18,-66.6 66.6,-66.6l295.52 0c36.42,0 66.6,30.18 66.6,66.6l0 4.16 130.07 -1.04z"/>
  <polygon class="fil7" points="2670.84,770.89 2774.25,723.69 2830.69,629.67 5715.6,625.23 5719.37,668.14 5854.82,569.16 5711.99,474.22 5712,513.08 2732.02,520.73 2621.84,711.73 "/>
  <polygon class="fil7" points="2086.35,778.22 1981.47,734.21 1928.93,646.69 519.67,642.25 515.91,685.16 380.46,586.17 523.29,491.24 523.28,530.09 2027.6,537.74 2138.77,730.49 "/>
  <polygon class="fil7" points="2086.15,1596.39 1995.45,1636.1 1935.98,1735.18 526.72,1739.63 522.95,1696.72 387.5,1795.7 530.33,1890.64 530.32,1851.78 2034.64,1844.14 2153.74,1637.66 "/>
  <polygon class="fil7" points="2672.77,1585.27 2771.44,1635.07 2827.77,1728.91 5738.46,1733.35 5742.23,1690.44 5877.68,1789.43 5734.85,1884.36 5734.86,1845.51 2729.1,1837.86 2613.04,1636.64 "/>
  <g id="_2282446989344">
   <path class="fil86" d="M972.38 7509.49l0 463.4 -468.25 -360.55 -130.07 -99.72 0 725.27 130.07 0 0 -460.27 468.25 360.55 130.07 99.72 0 -727.35 -130.07 -1.04zm430.79 130.07l531.73 0 0 -130.07 -531.73 0c-108.22,0 -195.63,88.45 -195.63,196.67l0 335.06c0,108.22 87.41,196.67 195.63,196.67l531.73 0 0 -130.07 -531.73 0c-36.42,0 -66.6,-30.18 -66.6,-66.6l0 -137.35 468.25 0 0 -130.07 -468.25 0 0 -67.63c0,-36.42 30.18,-66.6 66.6,-66.6zm609.77 601.44l2.08 -2.08 -2.08 0 0 2.08zm728.39 -2.08l-1.04 0 1.04 2.08 0 -2.08zm0 -729.43l-163.37 0 -199.79 259.44 -199.79 -259.44 -164.41 0 281.99 365.76 -279.91 363.68 164.41 0 198.75 -257.37 198.75 257.37 164.41 0 -280.95 -363.68 281.99 -365.76 -2.08 0zm325.7 0c-200.83,0 -364.2,163.37 -364.2,364.19 0,200.83 163.37,364.2 364.2,364.2 200.83,0 364.19,-163.37 364.19,-364.2 0,-200.83 -163.37,-364.19 -364.19,-364.19zm0 598.32c-129.03,0 -234.13,-105.1 -234.13,-234.13 0,-129.03 105.1,-234.12 234.13,-234.12 129.03,0 234.12,105.1 234.12,234.12 0,129.03 -105.1,234.13 -234.12,234.13zm807.48 -598.32l-364.2 0 0 728.39 364.2 0c99.89,0 190.42,-40.58 255.98,-107.18 7.28,-7.29 14.57,-14.57 20.81,-21.85 54.11,-63.48 86.37,-145.68 86.37,-235.17 0,-201.87 -163.37,-364.19 -364.19,-364.19l1.04 0zm-1.04 599.36l-234.13 0 0 -469.29 234.13 0c129.03,0 234.12,105.27 234.12,234.65 0,129.37 -105.1,234.65 -234.12,234.65zm1067.61 -599.36l0 364.19c0,129.03 -105.1,234.13 -234.12,234.13 -129.03,0 -234.13,-105.1 -234.13,-234.13l0 -364.19 -130.07 0 0 364.19c0,200.83 163.37,364.2 364.2,364.2 200.83,0 364.19,-163.37 364.19,-364.2l0 -364.19 -130.07 0zm922.98 200.83l0 -4.16c0,-108.22 -88.45,-196.67 -196.67,-196.67l-295.52 0c-108.22,0 -195.63,88.45 -195.63,196.67l0 4.16c0,41.62 12.49,80.12 34.34,111.34 7.28,11.45 15.61,21.85 24.97,31.22 35.38,34.34 83.24,55.15 136.31,55.15l262.22 0c55.15,0 100.93,44.74 100.93,99.89 0,55.15 -45.79,99.89 -100.93,99.89l-227.89 0c-55.15,0 -99.89,-44.74 -99.89,-99.89l-130.07 0c0,126.95 103.02,229.96 229.96,229.96l227.89 0c126.95,0 229.96,-103.02 229.96,-229.96 0,-55.15 -19.77,-106.14 -52.03,-145.68 -3.12,-3.12 -5.2,-6.24 -8.33,-9.37 -41.62,-45.78 -101.97,-74.92 -169.61,-74.92l-262.22 0c-36.42,0 -66.6,-30.18 -66.6,-66.59l0 -4.16c0,-36.42 30.18,-66.6 66.6,-66.6l295.52 0c36.42,0 66.6,30.18 66.6,66.6l0 4.16 130.07 -1.04z"/>
   <polygon class="fil7" points="2667.34,7458.73 2770.75,7411.53 2827.19,7317.51 5712.1,7313.07 5715.87,7355.98 5851.32,7256.99 5708.49,7162.06 5708.5,7200.91 2728.51,7208.56 2618.34,7399.57 "/>
   <polygon class="fil4" points="2082.85,7466.05 1977.96,7422.05 1925.43,7334.53 516.17,7330.08 512.4,7372.99 376.96,7274.01 519.78,7179.07 519.78,7217.93 2024.1,7225.57 2135.27,7418.32 "/>
   <polygon class="fil7" points="2082.65,8284.23 1991.95,8323.94 1932.47,8423.02 523.22,8427.46 519.45,8384.55 384,8483.54 526.83,8578.47 526.82,8539.62 2031.14,8531.97 2150.24,8325.49 "/>
   <polygon class="fil6" points="2669.27,8273.1 2767.94,8322.9 2824.27,8416.75 5734.96,8421.19 5738.73,8378.28 5874.18,8477.27 5731.35,8572.2 5731.36,8533.34 2725.6,8525.7 2609.54,8324.47 "/>
  </g>
 </g>
</svg>
